<?xml version="1.0" encoding="utf-8"?>
<!-- Generator: Adobe Illustrator 16.0.0, SVG Export Plug-In . SVG Version: 6.00 Build 0)  -->
<!DOCTYPE svg PUBLIC "-//W3C//DTD SVG 1.1//EN" "http://www.w3.org/Graphics/SVG/1.1/DTD/svg11.dtd">
<svg version="1.1" id="레이어_1" xmlns="http://www.w3.org/2000/svg" xmlns:xlink="http://www.w3.org/1999/xlink" x="0px"
	 y="0px" width="63.064px" height="60.295px" viewBox="0 0 63.064 60.295" enable-background="new 0 0 63.064 60.295"
	 xml:space="preserve">
<g>
	<path fill="#FFFFFF" d="M53.524,55.356c-0.438,1.602-0.772,3.231-1.171,4.933c-2.473,0-5.111,0-7.862,0
		c0.082-1.008,0.125-2.025,0.253-3.03c0.411-3.216,0.766-6.447,1.877-9.523c0.209-0.582,0.028-1.06-0.206-1.565
		c-1.619-3.497-3.229-6.999-4.849-10.495c-0.183-0.393-0.391-0.775-0.616-1.145c-1.293-2.124-3.097-3.668-5.426-4.519
		c-1.82-0.664-3.709-1.14-5.535-1.79c-0.777-0.276-1.515-0.724-2.181-1.215c-0.244-0.18-0.377-0.746-0.299-1.072
		c0.107-0.45,0.582-0.487,1.03-0.418c0.428,0.064,0.883,0.001,1.292,0.114c0.357,0.099,0.664,0.374,1,0.555
		c0.292,0.157,0.583,0.34,0.896,0.428c1.93,0.546,3.901,0.972,5.794,1.622c3.114,1.069,5.392,3.131,6.636,6.22
		c0.911,2.263,1.743,4.557,2.619,6.833c0.172,0.446,0.383,0.878,0.577,1.316c0.068-0.017,0.135-0.035,0.203-0.051
		c0-0.536-0.03-1.072,0.006-1.604c0.09-1.322,0.223-2.64,0.315-3.961c0.112-1.605-0.299-3.081-1.19-4.415
		c-0.775-1.161-1.223-2.428-1.453-3.805c-0.138-0.825-0.391-1.646-0.697-2.427c-0.384-0.98-0.828-1.96-2.125-2.238
		c0.278-0.174,0.456-0.285,0.793-0.495c-0.404-0.065-0.655-0.152-0.898-0.137c-2.006,0.128-3.995,0.304-5.943,0.901
		c-1.078,0.331-2.245,0.37-3.371,0.542c-0.451,0.069-0.9,0.149-1.352,0.206c-0.138,0.017-0.285-0.017-0.426-0.04
		c-0.215-0.035-0.431-0.119-0.644-0.111c-0.231,0.01-0.458,0.102-0.724,0.034c0.328-0.142,0.664-0.268,0.983-0.43
		c0.835-0.423,0.955-1.145,0.163-1.629c-0.723-0.442-1.561-0.809-2.391-0.938c-1.323-0.207-2.68-0.202-4.024-0.26
		c-1.096-0.046-1.943,0.483-2.597,1.303c-1.334,1.675-2.874,3.133-4.591,4.399c-2.141,1.579-3.045,3.811-3.405,6.334
		c-0.905,6.348-1.27,12.731-1.124,19.141c0.055,2.441,0.177,4.881,0.27,7.368c-0.609,0-1.224,0-1.84,0v0.005H57.47
		c-0.542-3.217-1.397-6.344-2.58-9.247C54.438,52.459,53.925,53.893,53.524,55.356z"/>
	<path fill="#155DFC" d="M61.766,52.193c-1.67-7.681-4.616-14.88-8.423-21.745c-2.107-3.799-3.839-7.734-3.581-12.237
		c0.005-0.091-0.01-0.183-0.01-0.274c0.006-4.514-1.601-8.463-4.424-11.89C41.83,1.8,37.072,0.182,31.735,0.011
		c-4.111-0.131-8.007,0.902-11.822,2.33c-0.831,0.311-1.678,0.646-2.546,0.771c-2.383,0.342-4.775,0.326-7.18,0.11
		C8.579,3.078,6.942,3.037,5.336,3.169C3.223,3.343,1.497,4.308,0.483,6.281C0.298,6.64,0.16,7.023,0,7.396c0,0.412,0,0.823,0,1.235
		c0.126-0.02,0.283,0.004,0.373-0.064C1.33,7.855,2.392,7.734,3.499,8.053c1.007,0.29,1.983,0.687,2.99,0.979
		c1.376,0.399,2.75,0.927,4.158,1.075c3.025,0.317,5.776,1.302,8.321,2.91c1.933,1.222,3.468,2.827,4.395,4.943
		c0.514,1.174,0.388,2.245-0.592,3.191c-1.479,1.426-2.912,2.901-4.371,4.35c-0.243,0.241-0.498,0.478-0.781,0.667
		c-2.81,1.873-4.189,4.623-4.564,7.858c-0.362,3.127-1.201,6.008-2.759,8.791c-2.215,3.956-4.113,8.09-6.116,12.163
		c-0.817,1.661-1.011,3.487-1.282,5.311c2.841,0,5.651,0,8.396,0c0.617,0,1.231,0,1.84,0c-0.093-2.486-0.215-4.927-0.27-7.368
		c-0.146-6.41,0.219-12.793,1.124-19.14c0.36-2.523,1.264-4.755,3.405-6.334c1.718-1.267,3.257-2.725,4.592-4.399
		c0.653-0.819,1.5-1.35,2.596-1.303c1.344,0.058,2.701,0.053,4.024,0.26c0.829,0.128,1.668,0.495,2.39,0.937
		c0.792,0.485,0.672,1.206-0.163,1.629c-0.319,0.162-0.655,0.289-0.983,0.43c0.266,0.069,0.494-0.024,0.725-0.034
		c0.212-0.008,0.428,0.076,0.643,0.111c0.141,0.023,0.288,0.057,0.426,0.04c0.452-0.057,0.901-0.136,1.352-0.206
		c1.127-0.171,2.293-0.211,3.372-0.542c1.947-0.597,3.937-0.773,5.943-0.901c0.244-0.015,0.494,0.072,0.898,0.137
		c-0.337,0.21-0.515,0.321-0.793,0.495c1.297,0.278,1.741,1.258,2.124,2.238c0.306,0.782,0.559,1.602,0.697,2.428
		c0.23,1.376,0.678,2.644,1.453,3.804c0.892,1.334,1.303,2.811,1.191,4.416c-0.093,1.321-0.225,2.639-0.315,3.961
		c-0.037,0.532-0.006,1.069-0.006,1.604c-0.067,0.016-0.135,0.034-0.202,0.051c-0.194-0.438-0.405-0.87-0.577-1.316
		c-0.875-2.278-1.708-4.571-2.619-6.833c-1.244-3.089-3.522-5.151-6.636-6.22c-1.894-0.65-3.864-1.075-5.794-1.622
		c-0.314-0.089-0.605-0.271-0.896-0.429c-0.337-0.181-0.644-0.456-1-0.555c-0.41-0.112-0.865-0.049-1.292-0.114
		c-0.449-0.068-0.924-0.031-1.031,0.419c-0.077,0.327,0.055,0.892,0.299,1.072c0.666,0.491,1.404,0.938,2.181,1.215
		c1.826,0.65,3.714,1.126,5.535,1.791c2.329,0.85,4.133,2.395,5.426,4.519c0.225,0.369,0.434,0.752,0.615,1.145
		c1.62,3.496,3.23,6.999,4.849,10.495c0.234,0.505,0.416,0.984,0.206,1.565c-1.111,3.077-1.467,6.307-1.877,9.523
		c-0.128,1.005-0.171,2.021-0.254,3.03c2.751,0,5.389,0,7.862,0c0.399-1.702,0.734-3.332,1.171-4.933
		c0.401-1.464,0.914-2.898,1.366-4.309c1.183,2.902,2.038,6.03,2.58,9.247h1.792c1.232,0,2.479,0,3.804,0
		C62.633,57.547,62.341,54.839,61.766,52.193z M26.043,8.692c0.638-0.292,1.299-0.576,1.98-0.723
		c1.38-0.297,2.615,0.388,3.195,1.858c-0.282-0.172-0.6-0.305-0.838-0.525c-1.084-1.002-2.242-1.07-3.315-0.193
		c-0.352,0.287-0.401,0.545-0.16,0.929c0.708,1.125,2.031,1.34,3.375,0.568c0.405-0.232,0.87-0.358,1.308-0.534
		c0.043,0.11,0.087,0.222,0.131,0.332c-0.998,0.38-1.987,0.792-3.002,1.119c-0.265,0.085-0.675,0.001-0.91-0.162
		c-0.688-0.475-1.37-0.98-1.963-1.566C25.341,9.3,25.421,8.979,26.043,8.692z M32.973,2.058c3.815,1.08,6.792,3.407,9.166,6.503
		c1.384,1.805,1.704,3.958,1.46,6.183c-0.131,1.188-0.769,2.144-1.684,2.884c-0.229,0.188-0.656,0.316-0.911,0.23
		c-0.194-0.066-0.353-0.509-0.365-0.791c-0.042-0.978,0.054-1.964-0.026-2.938c-0.214-2.586-1.44-4.555-3.694-5.898
		c-1.547-0.921-3.059-1.903-4.564-2.893c-1.301-0.855-2.742-1.136-4.249-1.035c-1.82,0.123-3.631,0.379-5.45,0.52
		c-1.368,0.104-2.658-0.231-3.969-0.921C23.369,2.029,27.999,0.65,32.973,2.058z M1.426,6.563C2.263,5.254,3.48,4.459,4.968,4.27
		C6.361,4.093,7.8,4.01,9.192,4.152c2.697,0.276,5.378,0.314,8.072,0.058c0.208-0.02,0.417-0.022,0.626-0.033
		c0.004,0.073,0.008,0.145,0.012,0.218c-1.121,0.086-2.243,0.253-3.363,0.242C12.623,4.62,10.702,4.57,8.796,4.39
		C6.033,4.127,3.493,4.458,1.426,6.563z M4.406,6.553c2.049-0.887,12.56,0.606,14.821,2.197c-2.553-0.521-4.991-1.127-7.464-1.492
		C9.302,6.895,6.807,6.773,4.406,6.553z M8.53,7.887c0.007-0.084,0.014-0.168,0.02-0.252c0.476,0.03,0.959,0.016,1.426,0.096
		c2.563,0.442,5.117,0.932,7.683,1.356c1.327,0.22,2.68,0.286,4.002,0.524c0.86,0.154,1.687,0.497,2.497,0.834
		C18.948,9.593,13.739,8.74,8.53,7.887z"/>
	<path fill="#FFFFFF" d="M32.973,2.058c-4.975-1.407-9.604-0.029-14.287,1.845c1.311,0.691,2.601,1.025,3.969,0.921
		c1.819-0.141,3.63-0.397,5.45-0.52c1.506-0.101,2.947,0.18,4.249,1.035c1.505,0.99,3.017,1.972,4.564,2.893
		c2.254,1.343,3.48,3.312,3.694,5.898c0.081,0.973-0.016,1.96,0.026,2.938c0.013,0.282,0.171,0.725,0.365,0.791
		c0.255,0.086,0.682-0.042,0.911-0.23c0.915-0.74,1.553-1.696,1.684-2.884c0.244-2.225-0.076-4.378-1.46-6.183
		C39.765,5.464,36.789,3.138,32.973,2.058z"/>
	<path fill="#FFFFFF" d="M30.281,10.607c-1.344,0.773-2.667,0.557-3.375-0.568c-0.241-0.384-0.191-0.642,0.16-0.929
		c1.073-0.877,2.231-0.81,3.315,0.193c0.237,0.22,0.556,0.353,0.838,0.525c-0.58-1.471-1.814-2.156-3.195-1.858
		c-0.681,0.147-1.342,0.43-1.98,0.723c-0.622,0.286-0.702,0.607-0.2,1.104c0.593,0.586,1.275,1.091,1.963,1.566
		c0.236,0.164,0.646,0.247,0.91,0.162c1.016-0.328,2.004-0.739,3.002-1.119c-0.044-0.11-0.087-0.222-0.131-0.333
		C31.151,10.249,30.686,10.375,30.281,10.607z"/>
	<path fill="#FFFFFF" d="M19.227,8.75C16.965,7.159,6.455,5.666,4.406,6.553c2.401,0.22,4.897,0.342,7.356,0.705
		C14.236,7.623,16.674,8.229,19.227,8.75z"/>
	<path fill="#FFFFFF" d="M17.659,9.088c-2.565-0.425-5.12-0.914-7.683-1.356C9.509,7.651,9.026,7.665,8.55,7.635
		C8.543,7.719,8.537,7.803,8.53,7.887c5.209,0.854,10.418,1.707,15.627,2.56c-0.81-0.338-1.636-0.68-2.497-0.834
		C20.338,9.374,18.985,9.308,17.659,9.088z"/>
	<path fill="#FFFFFF" d="M8.796,4.39c1.905,0.181,3.827,0.23,5.742,0.248c1.12,0.011,2.242-0.156,3.363-0.242
		c-0.004-0.073-0.008-0.146-0.012-0.218c-0.208,0.011-0.418,0.013-0.625,0.033c-2.693,0.256-5.375,0.218-8.072-0.058
		C7.8,4.01,6.361,4.093,4.968,4.27C3.48,4.459,2.263,5.254,1.426,6.563C3.493,4.458,6.033,4.127,8.796,4.39z"/>
</g>
</svg>
