<?xml version="1.0" encoding="utf-8"?>
<!-- Generator: Adobe Illustrator 16.0.0, SVG Export Plug-In . SVG Version: 6.00 Build 0)  -->
<!DOCTYPE svg PUBLIC "-//W3C//DTD SVG 1.1//EN" "http://www.w3.org/Graphics/SVG/1.1/DTD/svg11.dtd">
<svg version="1.1" id="레이어_1" xmlns="http://www.w3.org/2000/svg" xmlns:xlink="http://www.w3.org/1999/xlink" x="0px"
	 y="0px" width="204.025px" height="216.045px" viewBox="0 0 204.025 216.045" enable-background="new 0 0 204.025 216.045"
	 xml:space="preserve">
<g>
	<path d="M203.973,214.692c-0.209-5.938-2.43-46.777-24.233-66.093c-7.168-6.356-13.608-14.245-19.139-23.45
		c-5.223-8.69-7.154-17.212-8.823-25.908c-0.826-4.289-1.417-8.702-1.989-12.968c-0.215-1.623-0.433-3.246-0.662-4.866
		c-1.166-8.23-3.167-17.748-9.149-25.93c-4.097-5.601-9.694-10.959-16.637-15.922c-12.503-8.935-26.834-11.456-36.654-11.998
		c-25.902-1.428-37.235-9.223-51.569-20.949C29.76,2.223,24.962,0,20.856,0c-5.63,0-7.866,4.124-7.958,4.298
		c-0.235,0.445-0.114,0.995,0.285,1.299c34.769,26.633,40.081,60.868,40.13,61.21c0.414,2.867,0.609,5.827,0.797,8.688
		c0.226,3.415,0.458,6.946,1.062,10.429l0.136,0.787c0.949,5.495,2.129,12.336,5.263,17.156c0.426,0.656,0.832,1.049,1.158,1.367
		c0.509,0.494,0.663,0.643,0.596,1.748c-0.128,2.126-1.488,4.198-2.804,6.201c-0.534,0.811-1.054,1.604-1.485,2.382
		c-10.157,18.332-22.905,38.777-40.454,51.417C1.955,178.236,0.074,213.47,0.001,214.964c-0.013,0.282,0.089,0.558,0.284,0.761
		c0.194,0.206,0.464,0.32,0.746,0.32h201.921c0.014-0.002,0.026-0.002,0.042,0c0.568,0,1.031-0.461,1.031-1.031
		C204.025,214.901,204.005,214.793,203.973,214.692z"/>
	<g>
		<path fill="#FFFFFF" d="M134.516,50.544c0,0,19.687,48.414-16.2,49.114c0,0,28.469,1.488,30.251-14.748
			C148.567,84.91,147.739,62.874,134.516,50.544z"/>
		<path d="M120.162,100.725c-0.002,0-0.002,0-0.002,0c-1.192,0-1.896-0.038-1.896-0.038c-0.556-0.028-0.986-0.491-0.979-1.045
			c0.012-0.556,0.457-1.005,1.011-1.015c7.993-0.155,13.727-2.786,17.041-7.82c8.827-13.395-1.669-39.611-1.775-39.875
			c-0.184-0.449-0.028-0.962,0.37-1.238c0.395-0.274,0.932-0.234,1.287,0.096c13.383,12.475,14.345,34.163,14.377,35.081
			C147.993,99.592,126.664,100.725,120.162,100.725z M137.181,54.975c2.714,8.497,6.987,26.176-0.121,36.966
			c-1.603,2.43-3.685,4.361-6.233,5.782c7.514-1.391,15.821-4.78,16.715-12.926C147.53,84.739,146.741,67.14,137.181,54.975z"/>
	</g>
	<g>
		<path fill="#FFFFFF" d="M78.195,103.03c3.33-1.514,6.744-2.404,10.891-2.943c4.534-0.588,9.212-1.776,13.806-1.115
			c8.66,1.242,17.377,7.437,24.96,11.589c8.146,4.456,15.992,9.714,22.819,16.024c3.779,3.499,7.232,7.403,10.006,11.758
			c14.722,23.106,23.108,45.426,24.418,76.671H6.02c0,0,13.391-85.075,37.811-92.951c9.845-4.538,19.531-9.64,28.526-15.712
			C74.36,104.998,76.263,103.91,78.195,103.03z"/>
		<path d="M185.138,216.045c-0.014-0.002-0.026-0.002-0.042,0H6.02c-0.301,0-0.588-0.133-0.783-0.361
			c-0.196-0.229-0.282-0.533-0.235-0.831c0.551-3.5,13.774-85.792,38.514-93.771c10.975-5.068,20.259-10.182,28.265-15.586
			c2.072-1.399,4.031-2.513,5.989-3.404c3.351-1.524,6.799-2.457,11.185-3.028c1.075-0.139,2.157-0.312,3.246-0.487
			c3.583-0.574,7.509-1.101,10.84-0.626c6.966,1,14.005,5.132,20.214,8.778c1.744,1.025,3.445,2.025,5.094,2.927
			c8.986,4.915,16.731,10.357,23.023,16.171c4.138,3.832,7.562,7.854,10.178,11.962c16.171,25.382,23.299,47.683,24.567,76.893
			c0.037,0.104,0.055,0.215,0.055,0.332C186.169,215.584,185.708,216.045,185.138,216.045z M7.235,213.983h176.783
			c-1.343-28.435-8.394-50.264-24.211-75.087c-2.521-3.958-5.831-7.846-9.837-11.555c-6.167-5.7-13.775-11.043-22.614-15.877
			c-1.665-0.912-3.386-1.923-5.148-2.958c-6.34-3.723-12.896-7.572-19.462-8.515c-3.063-0.441-6.782,0.07-10.221,0.62
			c-1.108,0.179-2.212,0.354-3.306,0.498c-4.173,0.542-7.44,1.423-10.596,2.859c-1.853,0.844-3.713,1.902-5.689,3.235
			c-8.1,5.468-17.478,10.635-28.67,15.795C22.155,130.137,8.978,203.675,7.235,213.983z"/>
	</g>
	<g>
		<path fill="#FFFFFF" d="M37.968,19.308c0,0,28.883,41.661,51.289,37.986C89.257,57.294,87.332,43.64,37.968,19.308z"/>
		<path d="M86.39,58.555c-0.001,0-0.003,0-0.004,0c-22.207-0.004-48.17-37.081-49.265-38.659c-0.267-0.386-0.24-0.904,0.066-1.26
			c0.309-0.356,0.816-0.459,1.237-0.251C87.71,42.678,90.196,56.572,90.278,57.152c0.079,0.554-0.301,1.069-0.854,1.16
			C88.44,58.473,87.42,58.555,86.39,58.555z M41.339,22.145c7.085,9.306,27.756,34.344,45.047,34.348c0.002,0,0.003,0,0.004,0
			c0.495,0,0.987-0.022,1.474-0.063C86.295,53.002,78.457,40.968,41.339,22.145z"/>
	</g>
</g>
</svg>
