<?xml version="1.0" encoding="utf-8"?>
<!-- Generator: Adobe Illustrator 16.0.0, SVG Export Plug-In . SVG Version: 6.00 Build 0)  -->
<!DOCTYPE svg PUBLIC "-//W3C//DTD SVG 1.1//EN" "http://www.w3.org/Graphics/SVG/1.1/DTD/svg11.dtd">
<svg version="1.1" id="레이어_1" xmlns="http://www.w3.org/2000/svg" xmlns:xlink="http://www.w3.org/1999/xlink" x="0px"
	 y="0px" width="147.687px" height="145.928px" viewBox="0 0 147.687 145.928" enable-background="new 0 0 147.687 145.928"
	 xml:space="preserve">
<g>
	<path d="M147.6,145.176c-1.813-3.116-3.605-6.245-5.398-9.374c-1.488-2.599-2.978-5.196-4.478-7.787
		c-2.303-3.979-4.6-8.057-6.821-11.999c-3.645-6.47-7.413-13.159-11.321-19.615c-1.507-2.49-3.253-5.447-4.784-8.501
		c-0.785-1.565-1.589-3.277-2.531-5.388c-1.832-4.102-3.005-7.117-2.644-11.478c0.235-2.83,0.065-5.754-0.1-8.582
		c-0.082-1.404-0.167-2.856-0.198-4.261c-0.265-11.803-2.686-23.3-7.001-33.248c-1.556-3.586-3.186-6.646-4.982-9.354
		C93.401,9.657,86.174,4.814,77.511,2.303C70.624,0.307,62.614-0.4,54.021,0.215C43.8,0.952,35.179,4.95,29.09,11.779
		c-2.046,2.294-3.884,5.048-5.782,8.666c-0.25,0.476-0.498,0.94-0.743,1.399c-1.306,2.442-2.539,4.75-3.397,7.618
		c-1.078,3.601-2.26,7.868-2.848,12.225c-0.838,6.201-0.382,12.511,0.059,18.613l0.067,0.935c0.299,4.167,0.572,8.63,0.553,13.023
		c-0.027,5.991-0.169,11.836-1.571,17.471c-0.814,3.271-1.556,6.609-2.272,9.838c-0.313,1.413-0.627,2.826-0.947,4.239
		c-2.729,12.025-5.191,21.119-8.006,29.555c-0.657,1.969-1.337,4.005-2.148,5.939l-0.114,0.283c-1.028,2.58-1.443,3.214-1.593,3.368
		C0.146,145.016,0,145.205,0,145.427c0,0.276,0.224,0.5,0.5,0.5h146.667c0.179,0,0.344-0.096,0.434-0.251
		C147.689,145.521,147.689,145.331,147.6,145.176z"/>
	<path fill="#FFFFFF" d="M19.001,33.762c2.063-1.563,3.556-3.188,5.506-4.889c1.62-1.412,2.765-3.134,4.762-4.073
		c2.247-1.058,4.877-1.343,7.309-1.725c2.675-0.42,5.386-0.646,8.093-0.511c2.454,0.122,4.933,0.491,7.231,1.392
		c2.221,0.869,3.893,2.291,5.282,4.212c0.159,0.221,0.353,0.444,0.483,0.683h8.167c0,0,0.497-7.257,16.332-4.424
		c3.914,0.7,7.82,1.566,11.574,2.895c1.631,0.577,3.291,1.141,4.667,2.225c0.706,0.557,1.388,1.218,2.248,1.53
		c1.005,0.365,2.05,0.036,3.078,0.225c0.93,0.171,0.865,1.286,1.082,2.062c0.221,0.789,0.437,1.579,0.646,2.371
		c0.609,2.291,1.176,4.594,1.697,6.907c0.744,3.303,1.391,6.628,1.898,9.976c0.609,4.02,1.009,8.066,1.222,12.125
		c0.23,4.41,0.243,8.827,0.223,13.242c-0.003,0.538,0.018,1.081-0.009,1.618c-1.243,25.45,9.257,41.325,34.621,62.278l2.053,3.547
		H5.25c0,0,15.125-8.25,16.125-26.625s-3.923-40.623-3.923-40.623S14.593,35.347,19.001,33.762z"/>
	<path d="M93.807,29.903c-0.408-0.915-1.193-1.463-2.213-1.541c-2.347-0.189-5.472,2.128-5.654,4.146
		c-0.212,2.329-0.001,5.548,4.254,6.593c0.196,0.048,0.392,0.072,0.582,0.072c0.001,0,0,0,0.001,0c1.33,0,2.408-1.126,3.119-3.257
		C94.407,34.378,94.69,31.882,93.807,29.903z"/>
	<path d="M37.747,32.873c-0.421-3.788-2.83-6.052-4.916-6.052c-0.468,0-0.905,0.122-1.302,0.376c-2.081,1.59-2.963,4.085-2.42,6.848
		c0.489,2.48,2.069,4.678,3.677,5.111c0.226,0.062,0.469,0.093,0.722,0.093c1.049,0,2.147-0.527,2.938-1.411
		C37.197,36.998,38.034,35.455,37.747,32.873z"/>
	<g>
		<path d="M57.604,34.32c0.126-0.064,0.271-0.073,0.405-0.025c0.133,0.049,0.238,0.152,0.29,0.283
			c0.643,1.604,1.985,3.823,2.997,3.823c0.017,0,0.032,0,0.048-0.002c0.364-0.025,1.307-0.467,2.176-4.008
			c0.059-0.24,0.292-0.389,0.529-0.379c1.784,0.159,6.7,0.351,8.005-0.647c1.297-0.992,3.305-1.16,5.133-1.047
			c-5.048-5.761-8.128-6.801-9.685-6.801c-0.075,0-0.145,0.003-0.209,0.007c-0.327-1.799-1.71-7.544-6.066-7.93
			c-5.674,0.076-6.683,6.188-6.857,8.045c-2.454,0.068-6.207,3.569-9.188,6.838c1.416,0.017,3.65,0.236,5.818,1.247
			C54.08,35.161,56.959,34.657,57.604,34.32z"/>
		<path d="M82.576,39.309c-1.621-2.332-3.103-4.274-4.455-5.897c-2.494-0.297-4.427-0.042-5.46,0.748
			c-1.641,1.254-6.684,0.998-8.275,0.883c-0.751,2.842-1.726,4.268-2.973,4.354c-0.038,0.003-0.076,0.004-0.114,0.004
			c-1.76,0-3.21-2.829-3.735-3.999c-1.295,0.391-4.057,0.596-6.986-0.771c-2.56-1.193-5.274-1.187-6.311-1.132
			c-1.874,2.132-3.304,3.985-3.664,4.459c-0.137,0.179-0.136,0.425,0,0.604c0.136,0.18,0.377,0.246,0.583,0.164
			c0.015-0.006,3.255-1.25,6.925,2.099c3.847,4.779,9.646,5.295,11.961,5.295c0.442,0,0.722-0.02,0.731-0.025
			c0.07,0.006,0.37,0.029,0.844,0.029c1.877-0.001,6.642-0.365,10.356-3.742c2.411-2.191,5.221-2.651,7.153-2.651
			c1.674,0,2.856,0.342,2.868,0.345c0.206,0.062,0.423-0.015,0.547-0.188C82.695,39.714,82.697,39.483,82.576,39.309z"/>
		<path fill="#FFFFFF" d="M50.577,34.63c2.93,1.367,5.691,1.162,6.986,0.771c0.525,1.17,1.976,3.999,3.735,3.999
			c0.038,0,0.076-0.001,0.114-0.004c1.247-0.087,2.222-1.513,2.973-4.354c1.592,0.115,6.635,0.371,8.275-0.883
			c1.033-0.79,2.966-1.045,5.46-0.748c-0.318-0.382-0.63-0.746-0.935-1.094c-1.828-0.113-3.836,0.055-5.133,1.047
			c-1.305,0.998-6.221,0.807-8.005,0.647c-0.237-0.01-0.471,0.139-0.529,0.379c-0.869,3.541-1.812,3.982-2.176,4.008
			c-0.016,0.002-0.031,0.002-0.048,0.002c-1.012,0-2.354-2.219-2.997-3.823c-0.052-0.131-0.157-0.234-0.29-0.283
			c-0.134-0.048-0.279-0.039-0.405,0.025c-0.645,0.337-3.523,0.841-6.604-0.596c-2.168-1.011-4.402-1.23-5.818-1.247
			c-0.314,0.345-0.62,0.687-0.914,1.021C45.303,33.444,48.018,33.437,50.577,34.63z"/>
	</g>
	<g>
		<path fill="none" d="M25.803,45.032c0.425,0.076,0.851,0.146,1.276,0.216c0.945,0.154,1.923,0.314,2.891,0.547l0.479,0.114
			c1.639,0.385,3.053,0.718,4.412,2.221l0.577,0.642c0.822,0.916,1.674,1.863,2.54,2.752c2.661,2.727,5.534,5.567,8.83,7.709
			c1.376,0.896,3.011,1.842,4.706,2.08c3.75,0.526,7.72,0.482,11.223,0.439c0.869-0.009,1.761,0.021,2.652,0.053
			c1.982,0.071,4.026,0.145,5.896-0.295c3.163-0.742,5.972-3.675,8.45-6.262c0.756-0.79,1.471-1.536,2.186-2.217
			c0.574-0.546,1.112-1.134,1.682-1.757c0.991-1.082,2.016-2.201,3.254-3.098c1.729-1.252,3.448-1.514,5.268-1.791l0.351-0.054
			c2.735-0.422,6.608-1.426,9.531-3.816c1.686-1.378,2.854-3.12,3.385-5.04c-0.139-0.538-0.271-1.077-0.413-1.612
			c-0.209-0.791-0.425-1.578-0.645-2.365c-0.054-0.19-0.092-0.4-0.13-0.612c-0.138-0.768-0.238-1.033-0.562-1.092
			c-0.321-0.06-0.763-0.059-1.216-0.045c-0.175,0.005-0.349,0.011-0.522,0.011c-0.389,0-0.901-0.024-1.42-0.213
			c-0.769-0.279-1.38-0.782-1.971-1.27c-0.139-0.114-0.277-0.229-0.416-0.338c-1.26-0.992-2.826-1.546-4.342-2.081l-0.183-0.064
			c-3.231-1.144-6.776-2.03-11.495-2.874c-2.405-0.431-4.595-0.648-6.508-0.648c-8.819,0-9.234,4.568-9.237,4.614
			c-0.019,0.263-0.236,0.466-0.499,0.466h-8.167c-0.183,0-0.351-0.1-0.438-0.26c-0.079-0.145-0.188-0.282-0.291-0.418l-0.159-0.213
			c-1.418-1.959-3.025-3.242-5.06-4.038c-1.979-0.775-4.293-1.22-7.073-1.358c-2.515-0.121-5.049,0.044-7.991,0.506l-0.977,0.148
			c-2.12,0.318-4.313,0.647-6.196,1.534c-1.266,0.596-2.177,1.536-3.141,2.531c-0.474,0.488-0.963,0.994-1.506,1.467
			c-0.719,0.628-1.376,1.245-2.023,1.853c-1.127,1.06-2.191,2.06-3.509,3.058c-0.04,0.03-0.085,0.055-0.133,0.072
			c-0.834,0.3-1.381,2.623-1.713,6.171c0.002,0.006,0.006,0.009,0.008,0.015C18.138,42.838,22.213,44.388,25.803,45.032z"/>
		<path fill="none" d="M103.272,44.064c-3.271,2.675-7.511,3.784-10.492,4.244l-0.354,0.055c-1.71,0.26-3.06,0.466-4.397,1.434
			c-1.072,0.776-1.984,1.773-2.95,2.828c-0.567,0.62-1.154,1.261-1.778,1.855c-0.682,0.648-1.381,1.378-2.12,2.15
			c-2.671,2.788-5.697,5.948-9.438,6.826c-1.354,0.317-2.728,0.402-4.091,0.402c-0.783,0-1.563-0.028-2.334-0.056
			c-0.86-0.03-1.716-0.059-2.558-0.052c-3.573,0.043-7.623,0.09-11.524-0.459c-2.082-0.293-3.958-1.369-5.518-2.384
			c-3.468-2.253-6.433-5.183-9.172-7.989c-0.896-0.918-1.76-1.881-2.597-2.812l-0.573-0.638c-0.94-1.04-1.913-1.269-3.385-1.615
			l-0.49-0.116c-0.896-0.215-1.795-0.362-2.746-0.518C26.32,47.15,25.884,47.079,25.449,47c-1.943-0.349-5.875-1.287-8.215-3.424
			c-0.498,9.436,0.015,24.054,0.717,34.569c0.038,0.148,4.915,22.451,3.923,40.684c-0.815,14.996-11.039,23.427-14.912,26.098H146.3
			l-1.573-2.719c-27.157-22.448-35.923-38.261-34.732-62.631c0.017-0.349,0.014-0.7,0.01-1.051l-0.002-0.546
			c0.019-3.983,0.019-8.618-0.222-13.213c-0.216-4.109-0.625-8.173-1.217-12.076c-0.482-3.18-1.102-6.432-1.892-9.94
			c-0.155-0.688-0.324-1.381-0.488-2.072C105.45,41.936,104.474,43.082,103.272,44.064z"/>
		<path d="M147.539,145.073l-1.992-3.442c-0.029-0.052-0.068-0.098-0.114-0.136c-26.923-22.24-35.613-37.852-34.44-61.868
			c0.019-0.368,0.016-0.738,0.012-1.108l-0.002-0.532c0.019-3.997,0.019-8.649-0.224-13.271c-0.217-4.142-0.63-8.238-1.227-12.174
			c-0.485-3.203-1.108-6.478-1.905-10.011c-0.243-1.081-0.501-2.17-0.768-3.26c-0.211-0.861-0.433-1.72-0.656-2.579
			c-0.094-0.362-0.182-0.726-0.277-1.086c-0.211-0.794-0.427-1.587-0.648-2.378c-0.045-0.161-0.076-0.34-0.108-0.52
			c-0.129-0.72-0.306-1.704-1.365-1.899c-0.398-0.074-0.904-0.075-1.429-0.061c-0.163,0.006-0.327,0.011-0.49,0.011
			c-0.462,0-0.784-0.046-1.078-0.152c-0.606-0.221-1.127-0.648-1.677-1.103c-0.145-0.118-0.288-0.236-0.433-0.351
			c-1.39-1.095-3.036-1.677-4.628-2.239l-0.182-0.064c-3.285-1.162-6.879-2.061-11.653-2.915c-2.463-0.44-4.712-0.664-6.684-0.664
			c-8.166,0-9.822,3.737-10.154,5.08h-7.474c-0.067-0.097-0.139-0.191-0.211-0.285l-0.143-0.19
			c-1.515-2.093-3.315-3.527-5.505-4.385c-2.082-0.815-4.499-1.281-7.39-1.425c-2.578-0.13-5.185,0.043-8.194,0.516l-0.971,0.148
			c-2.191,0.329-4.457,0.669-6.474,1.618c-1.431,0.673-2.448,1.724-3.434,2.74c-0.459,0.474-0.933,0.963-1.444,1.408
			c-0.729,0.637-1.396,1.262-2.051,1.878c-1.093,1.026-2.125,1.997-3.378,2.951c-1.056,0.485-1.733,2.899-2.152,6.373
			c-0.107,0.886-0.197,1.84-0.271,2.853c-0.858,11.643,0.296,30.66,0.639,35.736c0.049,0.222,4.896,22.394,3.912,40.487
			c-0.973,17.87-15.717,26.132-15.865,26.214c-0.201,0.109-0.302,0.341-0.245,0.563c0.057,0.221,0.256,0.376,0.484,0.376h141.917
			c0.007,0.001,0.015,0,0.02,0c0.276,0,0.5-0.224,0.5-0.5C147.687,145.289,147.631,145.164,147.539,145.073z M19.17,34.233
			c0.048-0.018,0.093-0.042,0.133-0.072c1.317-0.998,2.382-1.998,3.509-3.058c0.647-0.607,1.305-1.225,2.023-1.853
			c0.543-0.473,1.032-0.979,1.506-1.467c0.964-0.995,1.875-1.936,3.141-2.531c1.884-0.887,4.076-1.216,6.196-1.534l0.977-0.148
			c2.942-0.462,5.477-0.627,7.991-0.506c2.78,0.139,5.094,0.583,7.073,1.358c2.034,0.796,3.642,2.079,5.06,4.038l0.159,0.213
			c0.104,0.136,0.212,0.273,0.291,0.418c0.088,0.16,0.256,0.26,0.438,0.26h8.167c0.263,0,0.48-0.203,0.499-0.466
			c0.003-0.046,0.418-4.614,9.237-4.614c1.913,0,4.103,0.218,6.508,0.648c4.719,0.844,8.264,1.73,11.495,2.874l0.183,0.064
			c1.516,0.535,3.082,1.089,4.342,2.081c0.139,0.109,0.277,0.224,0.416,0.338c0.591,0.487,1.202,0.99,1.971,1.27
			c0.519,0.188,1.031,0.213,1.42,0.213c0.174,0,0.348-0.006,0.522-0.011c0.453-0.014,0.895-0.015,1.216,0.045
			c0.323,0.059,0.424,0.324,0.562,1.092c0.038,0.212,0.076,0.422,0.13,0.612c0.22,0.787,0.436,1.574,0.645,2.365
			c0.143,0.535,0.274,1.074,0.413,1.612c-0.531,1.92-1.699,3.662-3.385,5.04c-2.923,2.391-6.796,3.395-9.531,3.816l-0.351,0.054
			c-1.819,0.277-3.538,0.539-5.268,1.791c-1.238,0.896-2.263,2.016-3.254,3.098c-0.569,0.623-1.107,1.211-1.682,1.757
			c-0.715,0.681-1.43,1.427-2.186,2.217c-2.479,2.587-5.287,5.52-8.45,6.262c-1.87,0.439-3.914,0.366-5.896,0.295
			c-0.892-0.032-1.783-0.062-2.652-0.053c-3.503,0.043-7.473,0.087-11.223-0.439c-1.695-0.238-3.33-1.185-4.706-2.08
			c-3.296-2.142-6.169-4.982-8.83-7.709c-0.866-0.889-1.718-1.836-2.54-2.752l-0.577-0.642c-1.359-1.503-2.773-1.836-4.412-2.221
			l-0.479-0.114c-0.968-0.232-1.945-0.393-2.891-0.547c-0.426-0.07-0.852-0.14-1.276-0.216c-3.59-0.644-7.665-2.193-8.338-4.613
			c-0.002-0.006-0.006-0.009-0.008-0.015C17.789,36.856,18.336,34.533,19.17,34.233z M6.962,144.927
			c3.873-2.671,14.097-11.102,14.912-26.098c0.992-18.232-3.885-40.535-3.923-40.684c-0.702-10.516-1.215-25.134-0.717-34.569
			c2.34,2.137,6.271,3.075,8.215,3.424c0.435,0.078,0.871,0.149,1.307,0.221c0.951,0.155,1.851,0.303,2.746,0.518l0.49,0.116
			c1.472,0.347,2.444,0.575,3.385,1.615l0.573,0.638c0.837,0.931,1.701,1.894,2.597,2.812c2.739,2.807,5.704,5.736,9.172,7.989
			c1.56,1.015,3.436,2.091,5.518,2.384c3.901,0.549,7.951,0.502,11.524,0.459c0.842-0.007,1.697,0.021,2.558,0.052
			c0.771,0.027,1.551,0.056,2.334,0.056c1.363,0,2.737-0.085,4.091-0.402c3.74-0.878,6.767-4.038,9.438-6.826
			c0.739-0.772,1.438-1.502,2.12-2.15c0.624-0.595,1.211-1.235,1.778-1.855c0.966-1.055,1.878-2.052,2.95-2.828
			c1.338-0.968,2.688-1.174,4.397-1.434l0.354-0.055c2.981-0.46,7.222-1.569,10.492-4.244c1.201-0.982,2.178-2.128,2.911-3.385
			c0.164,0.691,0.333,1.385,0.488,2.072c0.79,3.509,1.409,6.761,1.892,9.94c0.592,3.903,1.001,7.967,1.217,12.076
			c0.24,4.595,0.24,9.229,0.222,13.213l0.002,0.546c0.004,0.351,0.007,0.702-0.01,1.051c-1.19,24.37,7.575,40.183,34.732,62.631
			l1.573,2.719H6.962z"/>
	</g>
</g>
</svg>
