<?xml version="1.0" encoding="utf-8"?>
<!-- Generator: Adobe Illustrator 16.0.0, SVG Export Plug-In . SVG Version: 6.00 Build 0)  -->
<!DOCTYPE svg PUBLIC "-//W3C//DTD SVG 1.1//EN" "http://www.w3.org/Graphics/SVG/1.1/DTD/svg11.dtd">
<svg version="1.1" id="레이어_1" xmlns="http://www.w3.org/2000/svg" xmlns:xlink="http://www.w3.org/1999/xlink" x="0px"
	 y="0px" width="376.385px" height="200.477px" viewBox="0 0 376.385 200.477" enable-background="new 0 0 376.385 200.477"
	 xml:space="preserve">
<g>
	<g>
		<path fill="#FFFFFF" d="M167.894,48.073c-3.333-1.667-5.909-4.93-9.448-6.049c-10.91-3.457-23.083-4.271-34.132-7.241
			c-5.563-1.495-11.125-2.982-16.7-4.434c-5.64-1.465-11.129-3.471-16.947-4.138c-0.041-0.006-0.082-0.01-0.122-0.014
			c-2.702-0.305-5.378-0.778-8.057-1.231c-3.548-0.6-7.241-0.588-10.607-2.002c-1.5-0.632-2.937-1.391-4.396-2.105
			c-0.389-0.19-0.851-0.457-1.342-0.709c-19.048,2.488-32.984,4.49-33.355,4.543c-10.236,1.67-15.783,4.69-16.02,8.727
			c-0.428,7.222,14.896,16.502,18.638,17.578c5.505,1.581,38.445,18.725,45.678,25.957l1.026,1.021
			c1.377,1.372,3.15,3.14,5.125,5.179c3.607,0.087,11.559-3.38,18.71-6.501c9.729-4.244,19.835-8.655,26.342-8.443
			c12.744,0.381,36.353-1.239,45.511-7.134c1-0.646,2.185-1.75,3.45-3.11c1.633-3.269,3.17-7.774,4.193-11.092
			c-0.132,0.05-0.262,0.118-0.396,0.168C179.711,49.042,173.317,50.784,167.894,48.073z"/>
		<path fill="#FFFFFF" d="M109.317,119.488c-2.644,15.354-0.311,59.42,1.061,80.987H199.2c-1.67-18.708-3.345-55.644-10.423-56.685
			c-8.452-1.243-37.292,7.21-44.502,1.74s6.961-16.408,13.054-26.851c6.093-10.442,37.913-34.31,57.553-52.956
			c2.91-2.762,5.994-5.941,7.711-9.616c1.438-3.079,2.555-7.999-0.196-10.685c-5.085-4.971-11.831-0.935-16.935,1.625
			c-4.763,5.604-26.589,15.698-26.589,15.698c-9.535,6.142-33.686,7.826-46.645,7.453c-6.151-0.229-16.407,4.313-25.487,8.278
			c-7.884,3.439-13.785,5.93-17.737,6.52C98.427,94.931,110.966,109.901,109.317,119.488z"/>
		<path d="M108.336,119.319c1.61-9.354-11.238-24.419-20.602-34.214c-0.121,0.006-0.262,0.033-0.377,0.033
			c-0.404,0-0.744-0.068-1.092-0.129c9.281,9.621,22.667,24.971,21.09,34.141c-2.708,15.734-0.373,59.645,1.018,81.325h1.004
			C108,178.873,105.664,134.846,108.336,119.319z"/>
		<path d="M109.317,119.488c1.649-9.587-10.891-24.557-20.313-34.49c-0.455,0.068-0.864,0.092-1.27,0.107
			c9.364,9.795,22.212,24.859,20.602,34.214c-2.672,15.527-0.336,59.554,1.041,81.156h1
			C109.006,178.908,106.674,134.843,109.317,119.488z"/>
		<path d="M348.124,156.191c-17.394-27.93-33.607-57.209-53.152-83.692c-9.351-12.669-24.183-17.974-37.153-25.907
			c-14.891-9.107-24.95-23.825-39.035-33.999c-7.408-5.352-16.117-10.347-25.53-10.347c0,0-16.16-5.055-44.254,0
			C120.905,7.3,78.143,16.087,73.917,17.137c0,0-0.029,0.006-0.037,0.008c-23.049,2.948-40.965,5.521-41.393,5.582
			c-11.444,1.868-17.401,5.427-17.707,10.576c-0.522,8.87,16.679,18.629,20.078,19.605c5.786,1.663,38.211,18.845,44.819,25.452
			l1.028,1.025c1.19,1.186,2.686,2.673,4.351,4.379c0.395,0.403,0.796,0.817,1.21,1.244c0.348,0.061,0.688,0.129,1.092,0.129
			c0.115,0,0.256-0.027,0.377-0.033c0.406-0.016,0.815-0.039,1.27-0.107c3.953-0.59,9.854-3.08,17.737-6.52
			c9.081-3.965,19.336-8.508,25.487-8.278c12.959,0.373,37.11-1.312,46.645-7.453c0,0,21.826-10.094,26.589-15.698
			c5.104-2.56,11.85-6.596,16.935-1.625c2.751,2.686,1.634,7.605,0.196,10.685c-1.717,3.675-4.801,6.854-7.711,9.616
			c-19.641,18.646-51.46,42.514-57.553,52.956c-6.093,10.442-20.264,21.381-13.054,26.851s36.05-2.983,44.502-1.74
			c7.078,1.041,8.753,37.977,10.423,56.685h150.892h26.293C366.056,186.41,357.339,170.988,348.124,156.191z M181.248,57.967
			c-1.265,1.36-2.449,2.465-3.45,3.11c-9.158,5.895-32.767,7.515-45.511,7.134c-6.507-0.212-16.612,4.199-26.342,8.443
			c-7.151,3.121-15.104,6.588-18.71,6.501c-1.975-2.039-3.749-3.807-5.125-5.179l-1.026-1.021
			c-7.233-7.232-40.173-24.376-45.678-25.957C31.663,49.922,16.34,40.641,16.768,33.42c0.237-4.036,5.784-7.057,16.02-8.727
			c0.371-0.053,14.307-2.055,33.355-4.543c0.492,0.252,0.954,0.519,1.342,0.709c1.459,0.715,2.896,1.474,4.396,2.105
			c3.366,1.414,7.059,1.402,10.607,2.002c2.679,0.453,5.355,0.927,8.057,1.231c0.041,0.004,0.082,0.008,0.122,0.014
			c5.817,0.667,11.307,2.673,16.947,4.138c5.575,1.451,11.137,2.938,16.7,4.434c11.05,2.971,23.223,3.784,34.132,7.241
			c3.539,1.119,6.115,4.382,9.448,6.049c5.423,2.711,11.817,0.969,17.151-1.03c0.134-0.05,0.264-0.118,0.396-0.168
			C184.417,50.192,182.881,54.698,181.248,57.967z"/>
	</g>
	<path d="M131.596,46.705c0.008,0,18.771,2.113,20.263,3.605c0.8,0.801-2.395,1.271-2.76,1.324
		c-3.819,0.567-7.672,0.432-11.341-0.827c-1.505-0.517-6.505-1.44-7.226-3.098C130.265,47.094,130.772,46.612,131.596,46.705z"/>
	<path d="M0.174,34.135c-0.39-1.151-0.157-2.406,1.055-3.762c4.945-5.526,12.002-9.854,19.307-11.078
		c3.49-0.584,7.052-0.668,10.582-0.59c4.077,0.088,8.725-0.078,12.716,0.777c18.176,3.894,36.252,13.136,51.695,23.255
		c4.199,2.753,8.107,5.849,11.928,9.096c-2.95,0.416-6.575-0.376-9.556-0.571c-3.774-0.246-7.55-0.456-11.328-0.635
		c-8.399-0.398-16.813-0.697-25.223-0.546c-3.685,0.068-7.4,0.196-11.052,0.727c-13.32,1.935-27.634-3.632-39.367-9.366
		C8.138,40.082,1.347,37.584,0.174,34.135z"/>
</g>
</svg>
