<?xml version="1.0" encoding="utf-8"?>
<!-- Generator: Adobe Illustrator 16.0.0, SVG Export Plug-In . SVG Version: 6.00 Build 0)  -->
<!DOCTYPE svg PUBLIC "-//W3C//DTD SVG 1.1//EN" "http://www.w3.org/Graphics/SVG/1.1/DTD/svg11.dtd">
<svg version="1.1" id="레이어_1" xmlns="http://www.w3.org/2000/svg" xmlns:xlink="http://www.w3.org/1999/xlink" x="0px"
	 y="0px" width="317.932px" height="331.393px" viewBox="0 0 317.932 331.393" enable-background="new 0 0 317.932 331.393"
	 xml:space="preserve">
<g>
	<path d="M135.932,0.742c0,0-61.5,12.5-79.5,57C48.496,77.36,44.532,98.005,43.275,119.07c-1.082,18.127,0.226,39.896,7.487,56.756
		c5.678,13.185,6.628,25.157,3.613,39.146c-2.637,12.238-5.823,24.395-9.935,36.225c-4.924,14.167-14.137,26.491-21.659,39.318
		c-6.514,11.107-13.206,22.1-19.037,33.589c-1.107,2.182-4.354,6.837-3.644,9.553h317.331c-5.262-7.514-10.42-15.11-15.438-22.788
		c-9.142-13.988-18.759-26.398-19.173-43.714c-0.291-12.187-1.562-24.642-2.592-36.796c-2.994-35.283-6.041-70.509-13.091-105.272
		c-3.781-18.648-8.648-37.337-16.206-54.845C220.932,0.742,161.932-2.258,135.932,0.742z"/>
	<g>
		<path d="M222.682,92.367c0,6.973-3.513,12.75-8,12.75s-10-4.527-10-11.5s6.763-12.875,11.25-12.875S222.682,85.395,222.682,92.367
			z"/>
		<path fill="#FFFFFF" d="M215.932,80.742c4.487,0,6.75,4.652,6.75,11.625s-3.513,12.75-8,12.75s-10-4.527-10-11.5
			S211.444,80.742,215.932,80.742 M215.932,76.742c-6.865,0-15.25,7.787-15.25,16.875c0,9.135,7.379,15.5,14,15.5
			c6.729,0,12-7.357,12-16.75C226.682,80.847,221.129,76.742,215.932,76.742L215.932,76.742z"/>
	</g>
	<g>
		<path d="M82.432,92.93c0,7.088-1.504,14.061-4.772,14.061c-3.268,0-6.289-5.463-7.728-12.082c-1.505-6.925,1.732-12.833,5-12.833
			C78.199,82.075,82.432,85.843,82.432,92.93z"/>
		<path fill="#FFFFFF" d="M74.932,82.075c3.268,0,7.5,3.768,7.5,10.854c0,7.088-1.504,14.061-4.772,14.061
			c-3.268,0-6.289-5.463-7.728-12.082C68.426,87.983,71.664,82.075,74.932,82.075 M74.932,78.075c-2.293,0-4.49,1.16-6.188,3.266
			c-2.845,3.529-3.887,9.054-2.721,14.417c2.074,9.538,6.424,15.232,11.637,15.232c5.575,0,8.772-6.583,8.772-18.061
			C86.432,83.755,80.462,78.075,74.932,78.075L74.932,78.075z"/>
	</g>
	<path fill="#FFFFFF" d="M135.933,53.758c0.241-0.026,0.488-0.039,0.742-0.05c0.51-0.022,1.022-0.027,1.533,0.004
		c0.935,0.058,1.856,0.25,2.712,0.638c1.793,0.811,3.224,2.316,4.545,3.734c1.558,1.672,2.995,3.449,4.316,5.314
		c1.375,1.939,2.645,3.953,4.097,5.837c1.31,1.698,2.783,3.234,4.357,4.688c0.166,0.153,0.338,0.367,0.529,0.486
		c18,11.166,9,20.124,9,20.124c-6.167,2.457-5.904,14.962-20.167,20.876c-26.833,5.833-31.833-9.166-32.333-12.166
		s-2.333-4.834-2.333-4.834c-12.167-15.834-0.167-11.5,3-21.417c0.169-2.026,0.823-4,1.731-5.807
		c0.973-1.936,2.21-3.727,3.577-5.403c1.378-1.69,2.909-3.244,4.5-4.733c1.433-1.343,2.941-2.588,4.49-3.793
		c0.734-0.571,1.487-1.118,2.248-1.654c0.69-0.486,1.372-1.03,2.108-1.445C135.021,53.91,135.467,53.808,135.933,53.758z"/>
	<path d="M170.664,86.547c-0.035-0.024-0.1-0.065-0.117-0.077c-0.122-0.075-0.225-0.13-0.342-0.199
		c-1.045-4.198-4.791-8.325-11.176-12.286c-0.078-0.048-0.177-0.149-0.272-0.248c-0.062-0.063-0.123-0.126-0.182-0.181
		c-1.712-1.581-3.119-3.094-4.3-4.626c-0.915-1.187-1.775-2.452-2.607-3.676c-0.488-0.718-0.976-1.437-1.478-2.145
		c-1.351-1.907-2.817-3.712-4.359-5.366c-1.235-1.326-2.773-2.977-4.705-3.849c-0.854-0.387-1.825-0.616-2.888-0.682
		c-0.529-0.033-1.06-0.026-1.584-0.005c-0.266,0.012-0.523,0.025-0.774,0.053c-0.384,0.041-0.961,0.134-1.54,0.46
		c-0.56,0.315-1.083,0.697-1.588,1.066c-0.188,0.137-0.375,0.273-0.563,0.406c-0.767,0.54-1.526,1.092-2.267,1.668
		c-1.789,1.392-3.227,2.606-4.524,3.822c-1.863,1.744-3.307,3.264-4.546,4.782c-1.535,1.883-2.724,3.68-3.636,5.495
		c-1.011,2.011-1.609,4.007-1.778,5.932c-1.071,3.302-3.153,4.933-4.992,6.373c-1.5,1.175-2.685,2.23-3.138,3.66
		c-0.316,0.17-0.514,0.296-0.556,0.324c-0.683,0.462-0.86,1.386-0.403,2.071c0.243,0.364,0.62,0.583,1.022,0.644
		c0.576,2.074,2.154,4.828,5.206,8.798c0.017,0.018,1.726,1.753,2.194,4.563c0.095,0.568,2.538,13.918,21.538,13.918
		c3.453,0,7.287-0.452,11.48-1.372c8.745-3.626,12.092-9.618,14.783-14.433c1.725-3.089,3.088-5.528,5.378-6.44l0.167-0.11
		c0.102-0.101,2.146-2.186,2.374-5.604c0.39-0.143,0.72-0.438,0.884-0.854C171.658,87.705,171.342,86.895,170.664,86.547z
		 M111.063,84.053c1.865-1.461,4.186-3.278,5.344-6.908l0.022-0.11c0.151-1.815,0.717-3.708,1.68-5.624
		c0.879-1.749,2.03-3.487,3.518-5.312c1.209-1.483,2.625-2.973,4.454-4.685c1.275-1.195,2.691-2.391,4.455-3.764
		c0.728-0.566,1.475-1.108,2.229-1.64c0.192-0.136,0.384-0.275,0.576-0.416c0.482-0.353,0.981-0.717,1.49-1.003
		c0.322-0.182,0.678-0.286,1.155-0.337c0.23-0.025,0.467-0.037,0.71-0.048c0.25-0.011,0.501-0.018,0.751-0.018
		c0.243,0,0.486,0.007,0.729,0.021c0.94,0.058,1.794,0.258,2.537,0.595c1.749,0.79,3.21,2.358,4.385,3.619
		c1.511,1.621,2.949,3.392,4.274,5.263c0.498,0.703,0.982,1.416,1.467,2.129c0.84,1.235,1.709,2.514,2.642,3.725
		c1.216,1.576,2.66,3.13,4.414,4.749c0.047,0.044,0.095,0.093,0.144,0.143c0.131,0.135,0.279,0.288,0.461,0.401
		c5.668,3.517,9.167,7.119,10.452,10.739c-0.197-0.102-0.4-0.212-0.591-0.301c-1.044-0.49-2.161-0.905-3.32-1.234
		c-1.759-0.499-3.575-0.771-5.399-0.808c-2.451-0.048-5.108,0.309-8.128,1.094c-3.101,0.807-6.111,1.636-8.846,2.903
		c-1.471,0.682-2.554,1.652-3.602,2.591l-0.445,0.398c-0.772,0.683-1.701,1.468-2.728,2.105c-1.279,0.794-2.305,1.085-3.139,0.894
		c-0.676-0.157-1.347-0.639-2.175-1.563c-0.344-0.384-0.665-0.786-0.986-1.188c-0.366-0.457-0.732-0.914-1.126-1.351l-0.199-0.225
		c-0.541-0.616-1.282-1.46-2.179-1.801c-8.528-3.244-14.487-1.931-17.369-0.806C109.261,85.478,110.102,84.807,111.063,84.053z
		 M167.475,94.112c-2.555,1.073-4.049,3.748-5.775,6.839c-2.615,4.68-5.868,10.503-14.208,13.97
		c-4.038,0.878-7.8,1.322-11.182,1.322c-18.162,0-20.462-12.548-20.551-13.082c-0.521-3.122-2.394-5.026-2.43-5.057
		c-2.966-3.86-4.453-6.441-4.983-8.322c0.026-0.015,0.055-0.024,0.081-0.042c0.243-0.158,6.06-3.854,16.587,0.149
		c0.24,0.114,0.773,0.722,1,0.98l0.227,0.256c0.353,0.391,0.681,0.803,1.011,1.214c0.356,0.446,0.713,0.891,1.094,1.315
		c0.853,0.951,2.047,2.093,3.733,2.483c0.392,0.09,0.791,0.136,1.199,0.136c1.301,0,2.686-0.465,4.199-1.403
		c1.224-0.761,2.317-1.687,3.132-2.408l0.46-0.41c0.965-0.864,1.797-1.61,2.861-2.104c2.509-1.162,5.377-1.951,8.34-2.722
		c2.75-0.715,5.147-1.048,7.312-0.997c1.568,0.031,3.129,0.265,4.642,0.694c1.003,0.284,1.967,0.642,2.865,1.063
		c0.567,0.266,1.167,0.596,1.89,1.04c0.084,0.058,0.24,0.166,0.451,0.249c0.018,0.007,0.036,0.009,0.054,0.015
		C169.27,91.976,167.8,93.752,167.475,94.112z"/>
	<g>
		<path fill="#FFFFFF" d="M71.932,179.742c0.891,10.276,1.548,20.605,2.477,30.888c1.613,17.871,2.656,35.743,3.557,53.647
			c0.174,3.46,1.135,6.874,1.138,10.331c0.009,13.258-8.097,24.604-11.795,36.917c-0.831,2.766-6.839,22.132-0.875,22.132
			c0.038,0,251,0,251,0c-7.749-8.286-15.171-16.997-22.226-25.876c-12.497-15.729-25.394-31.795-32.31-50.908
			c-3.55-9.811-5.496-20.081-8.012-30.18c-2.542-10.196-6.29-19.737-10.127-29.495c-1.209-3.074-2.27-6.283-2.678-9.575
			c-0.357-2.889,0.541-6.345-0.391-9.087c-2.019-5.94-7.561-5.124-12-2.519c-6.361,3.734-11.426,10.085-16.008,15.725
			c-29.25,36-57.75,47.5-67.75,44c0,0-48.333-9.166-65.333-47.166C70.166,169.06,71.932,179.742,71.932,179.742z"/>
		<path fill="#FFFFFF" d="M317.432,334.157h-251c-0.888,0-1.603-0.356-2.125-1.059c-2.373-3.195,0.021-13.438,2.446-21.469
			l0.075-0.248c1.305-4.345,3.181-8.628,4.995-12.771c3.336-7.618,6.786-15.496,6.78-24.003c-0.001-1.858-0.293-3.755-0.576-5.589
			c-0.237-1.539-0.481-3.13-0.562-4.717c-0.8-15.906-1.849-34.717-3.555-53.628c-0.498-5.513-0.924-11.129-1.337-16.56
			c-0.357-4.701-0.726-9.563-1.14-14.33c-0.086-0.512-0.334-2.365,0.299-3.11c0.194-0.229,0.452-0.351,0.746-0.351
			c0.996,0,2.868,1.366,8.562,12.017c16.716,37.361,64.504,46.819,64.985,46.91c1.153,0.397,2.462,0.59,3.965,0.59
			c13.108,0,38.51-13.898,63.303-44.414l0.374-0.46c4.454-5.484,9.502-11.701,15.77-15.381c1.591-0.934,4.006-2.046,6.477-2.046
			c2.102,0,4.892,0.839,6.249,4.835c0.584,1.718,0.488,3.669,0.396,5.555c-0.063,1.286-0.122,2.501,0.018,3.632
			c0.438,3.524,1.645,6.903,2.646,9.454c3.732,9.49,7.592,19.304,10.146,29.557c0.663,2.659,1.286,5.33,1.909,8.002
			c1.712,7.338,3.482,14.927,6.089,22.129c6.781,18.741,19.425,34.652,31.652,50.04l0.578,0.728
			c7.389,9.299,14.857,17.994,22.199,25.845c0.137,0.146,0.173,0.358,0.094,0.541C317.811,334.039,317.631,334.157,317.432,334.157z
			 M72.478,177.324c-0.187,0.164-0.224,1.305-0.053,2.336c0.419,4.812,0.789,9.676,1.146,14.379
			c0.413,5.428,0.839,11.04,1.336,16.546c1.708,18.928,2.757,37.751,3.558,53.667c0.077,1.537,0.318,3.102,0.551,4.615
			c0.288,1.871,0.586,3.807,0.587,5.741c0.006,8.716-3.486,16.691-6.864,24.404c-1.802,4.115-3.665,8.37-4.953,12.656l-0.075,0.25
			c-3.287,10.881-4.234,18.384-2.601,20.584c0.332,0.446,0.751,0.654,1.321,0.654h249.85c-7.106-7.648-14.324-16.076-21.467-25.064
			l-0.578-0.728c-12.277-15.45-24.973-31.427-31.811-50.322c-2.625-7.257-4.402-14.875-6.121-22.242
			c-0.622-2.666-1.244-5.332-1.906-7.986c-2.539-10.19-6.215-19.537-10.105-29.434c-1.024-2.604-2.258-6.062-2.709-9.696
			c-0.15-1.217-0.086-2.532-0.023-3.804c0.087-1.792,0.178-3.646-0.345-5.184c-0.937-2.759-2.722-4.157-5.303-4.157
			c-1.753,0-3.873,0.678-5.971,1.909c-6.111,3.587-11.099,9.729-15.499,15.148l-0.373,0.46c-25,30.769-50.742,44.783-64.08,44.783
			c-1.615,0-3.037-0.211-4.224-0.627c-0.414-0.072-48.713-9.633-65.625-47.434C74.313,177.878,72.735,177.324,72.478,177.324z"/>
	</g>
</g>
</svg>
