<?xml version="1.0" encoding="utf-8"?>
<!-- Generator: Adobe Illustrator 16.0.0, SVG Export Plug-In . SVG Version: 6.00 Build 0)  -->
<!DOCTYPE svg PUBLIC "-//W3C//DTD SVG 1.1//EN" "http://www.w3.org/Graphics/SVG/1.1/DTD/svg11.dtd">
<svg version="1.1" id="레이어_1" xmlns="http://www.w3.org/2000/svg" xmlns:xlink="http://www.w3.org/1999/xlink" x="0px"
	 y="0px" width="246.67px" height="223.293px" viewBox="0 0 246.67 223.293" enable-background="new 0 0 246.67 223.293"
	 xml:space="preserve">
<g>
	<g>
		<path d="M230.856,222.162c-4.877-102.425-25.759-117.634-36.976-125.804c-3.313-2.413-5.717-4.163-6.831-7.267
			c-1.537-31.666,36.356-66.951,36.74-67.304l0.602-0.554l-7.249-8.301c-0.394-0.679-1.578-1.146-8.889-1.146
			c-2.506,0-5.158,0.056-7.288,0.102c-1.843,0.041-3.301,0.076-3.895,0.048c-7.761-0.31-15.618-1.773-23.215-3.187
			c-8.611-1.604-17.518-3.262-26.361-3.262c-5.266,0-10.067,0.574-14.678,1.754c-3.744,0.959-7.335,2.436-10.77,4.243
			c-0.061,0.02-0.115,0.058-0.17,0.09c-12.06,6.402-22.058,17.127-28.883,26.001c-7.316,9.51-12.917,21.032-15.77,32.445
			c-4.113,16.452-33.583,58.912-33.896,59.363c-19.375,29.98-42.671,91.901-42.904,92.523L0,223.041h230.898L230.856,222.162z"/>
		<path fill="#FFFFFF" d="M122.294,12.283c-0.011,0.01-27.877,25.874-15.845,36.729c1.889,1.704,4.117,3.351,6.427,4.43
			c1.691,0.792,3.503,1.181,5.365,1.227c1.5,0.038,3.011-0.104,4.47-0.456c1.307-0.316,2.547-0.859,3.853-1.172
			c1.143-0.275,2.221-0.199,3.347,0.111c0.125,0.033,0.375,0.743,0.438,0.873c0.163,0.331,0.319,0.666,0.48,0.999
			c0.415,0.854,0.87,1.688,1.442,2.45c0.735,0.978,1.64,1.837,2.683,2.479c1.363,0.843,2.919,1.248,4.51,1.335
			c2.242,0.122,4.488-0.285,6.684-0.692c0.292-0.054,0.599-0.087,0.885-0.166c2.171-0.592,4.603-1.599,6.353-3.037
			c1.261-1.038,2.189-2.454,2.582-4.042c0.339-1.376,0.192-2.762-0.244-4.097c-0.398-1.217-0.933-2.519-1.782-3.495
			c-0.996-1.143-2.473-1.589-3.89-1.963c-1.189-0.313-2.167-0.617-3.013-1.592c-0.945-1.091-1.478-2.53-2.062-3.831
			c-1.456-3.24-3.324-6.327-6.084-8.623c-2.229-1.852-4.807-2.849-7.433-3.984c-2.797-1.208-5.083-2.792-6.852-5.308
			c-1.227-1.745-2.313-3.725-2.527-5.883C122.035,14.11,121.897,12.652,122.294,12.283z"/>
	</g>
	<path d="M135.783,54.224c-0.061-0.182-0.076-0.374-0.033-0.577c0.215-1.046,3.234-2.741,4.216-3.188
		c1.881-0.857,3.974-1.236,6.028-1.333c1.433-0.067,3.818-0.31,5.158,0.228c1.62,0.651-0.677,3.222-1.217,3.878
		c-1.745,2.122-4.398,3.777-7.223,3.596C141.495,56.749,136.384,56.001,135.783,54.224z"/>
	<g>
		<path fill="#FFFFFF" d="M245.551,1.161c-31.277-4.198-62.344,34.216-62.344,34.216S242.403,20.683,245.551,1.161z"/>
		<path d="M183.207,36.217c-0.282,0-0.551-0.143-0.708-0.389c-0.194-0.305-0.171-0.699,0.056-0.979
			C183.706,33.426,211.076,0,240.695,0c1.675,0,3.346,0.111,4.968,0.33c0.225,0.03,0.428,0.149,0.563,0.332
			c0.134,0.182,0.19,0.41,0.154,0.634c-3.199,19.84-60.531,34.292-62.971,34.897C183.341,36.208,183.274,36.217,183.207,36.217z
			 M240.695,1.679c-24.676,0-48.554,24.833-55.089,32.196c11.208-3.055,54.899-15.934,58.94-31.989
			C243.28,1.748,241.989,1.679,240.695,1.679z"/>
	</g>
	<path d="M183.207,36.217c-0.279,0-0.553-0.14-0.712-0.395c-0.246-0.394-0.126-0.912,0.267-1.156
		c2.08-1.297,51.055-31.804,62.61-34.324c0.458-0.095,0.9,0.187,0.999,0.641c0.1,0.453-0.189,0.9-0.642,0.999
		c-11.273,2.46-61.572,33.793-62.079,34.108C183.514,36.176,183.359,36.217,183.207,36.217z"/>
	<g>
		<path fill="#FFFFFF" d="M202.267,104.662c0,0,5.5,12.582-3.316,15.101c-2.71,0.774-5.515,2.39-7.975,3.737
			c-3.554,1.95-6.881,4.33-9.699,7.255c-3.92,4.069-6.671,9.076-8.216,14.497c-2.208,7.75-2.089,16.001-1.197,23.943
			c1.194,10.609,3.805,21.018,6.44,31.345c1.699,6.653,0.118,14.794-3.509,20.714c-0.049,0.08-0.499,0.946-0.613,0.946
			c0.023,0,55.837,0,55.837,0S228.673,129.445,202.267,104.662z"/>
		<path d="M230.869,223.041h-56.688v-0.839l-0.56-0.607c0.113-0.138,0.289-0.474,0.377-0.636c3.739-6.116,5.079-13.992,3.491-20.209
			c-2.448-9.597-5.225-20.473-6.461-31.459c-1.097-9.771-0.708-17.482,1.225-24.267c1.617-5.676,4.528-10.812,8.418-14.85
			c2.68-2.782,6.011-5.274,9.9-7.41l0.667-0.367c2.306-1.27,4.921-2.711,7.48-3.44c1.794-0.514,3.008-1.486,3.709-2.977
			c1.981-4.197-0.902-10.914-0.932-10.981l-1.63-3.739l2.973,2.791c26.364,24.742,27.961,114.336,28.017,118.139L230.869,223.041z
			 M175.71,221.361h53.45c-0.222-9.058-2.771-87.246-24.944-113.418c0.625,2.562,1.023,6.014-0.266,8.75
			c-0.909,1.928-2.512,3.232-4.769,3.876c-2.378,0.679-4.903,2.071-7.132,3.298l-0.67,0.369c-3.741,2.053-6.937,4.443-9.497,7.101
			c-3.702,3.841-6.471,8.733-8.015,14.145c-1.87,6.568-2.242,14.074-1.169,23.621c1.223,10.87,3.983,21.687,6.418,31.229
			C180.781,206.853,179.443,215.062,175.71,221.361z"/>
	</g>
</g>
</svg>
