<?xml version="1.0" encoding="utf-8"?>
<!-- Generator: Adobe Illustrator 16.0.0, SVG Export Plug-In . SVG Version: 6.00 Build 0)  -->
<!DOCTYPE svg PUBLIC "-//W3C//DTD SVG 1.1//EN" "http://www.w3.org/Graphics/SVG/1.1/DTD/svg11.dtd">
<svg version="1.1" id="레이어_1" xmlns="http://www.w3.org/2000/svg" xmlns:xlink="http://www.w3.org/1999/xlink" x="0px"
	 y="0px" width="60.032px" height="52.59px" viewBox="0 0 60.032 52.59" enable-background="new 0 0 60.032 52.59"
	 xml:space="preserve">
<g>
	<path fill="#155DFC" d="M41.203,21.983c-0.045,0-0.089-0.006-0.133-0.018L3.383,11.632c-0.266-0.073-0.423-0.348-0.35-0.615
		c0.072-0.267,0.349-0.421,0.614-0.35L41.113,20.94l15.123-10.205c0.23-0.154,0.539-0.094,0.694,0.135
		c0.154,0.229,0.095,0.54-0.135,0.694L41.482,21.897C41.399,21.954,41.301,21.983,41.203,21.983z"/>
	<path fill="#155DFC" d="M41.203,27.149c-0.276,0-0.5-0.224-0.5-0.5v-5.166c0-0.276,0.224-0.5,0.5-0.5s0.5,0.224,0.5,0.5v5.166
		C41.703,26.925,41.479,27.149,41.203,27.149z"/>
	<g>
		<polygon fill="#FFFFFF" points="3.516,40.367 41.203,50.941 56.516,41.191 56.516,16.816 23.89,7.316 3.516,15.066 		"/>
		<path fill="#155DFC" d="M41.203,51.941c-0.091,0-0.182-0.012-0.271-0.037L3.246,41.33c-0.432-0.121-0.729-0.515-0.729-0.963
			V15.066c0-0.415,0.256-0.787,0.645-0.935l20.374-7.75c0.203-0.077,0.426-0.087,0.635-0.025l32.626,9.5
			c0.427,0.124,0.721,0.515,0.721,0.96v24.375c0,0.342-0.175,0.66-0.463,0.844l-15.313,9.75
			C41.578,51.888,41.391,51.941,41.203,51.941z M4.516,39.609l36.526,10.249l14.474-9.215V17.566L23.932,8.37L4.516,15.755V39.609z"
			/>
	</g>
	<g>
		<line fill="#155DFC" x1="41.203" y1="27.103" x2="41.203" y2="50.941"/>
		<path fill="#155DFC" d="M41.203,51.941c-0.553,0-1-0.448-1-1V27.103c0-0.552,0.447-1,1-1c0.552,0,1,0.448,1,1v23.838
			C42.203,51.493,41.754,51.941,41.203,51.941z"/>
	</g>
	<g>
		<polygon fill="#155DFC" points="3.516,11.15 19.015,1.65 56.516,11.15 56.516,16.816 41.016,26.649 3.516,16.649 		"/>
		<path fill="#155DFC" d="M41.016,27.649c-0.087,0-0.173-0.011-0.258-0.034l-37.5-10c-0.438-0.117-0.742-0.513-0.742-0.966V11.15
			c0-0.348,0.181-0.671,0.478-0.853l15.499-9.5c0.23-0.141,0.505-0.183,0.768-0.117l37.501,9.5c0.444,0.112,0.755,0.512,0.755,0.969
			v5.666c0,0.342-0.176,0.661-0.465,0.844l-15.5,9.833C41.39,27.596,41.204,27.649,41.016,27.649z M4.516,15.881L40.85,25.57
			l14.666-9.304v-4.338L19.178,2.723L4.516,11.71V15.881z"/>
	</g>
	<g>
		<path id="snowflake_4_" fill="#155DFC" d="M52.55,25.116l-1.368-0.789l3.715-1.513l0.034-0.012l-0.352-0.867l-4.423,1.798
			l-1.314-0.76v-2.956l1.326-0.767l4.387,1.785l0.035,0.015l0.352-0.87l-3.746-1.522l1.366-0.788l2.941,1.195l0.034,0.013
			l0.354-0.866l-2.304-0.935l1.97-1.137l0.032-0.021l-0.468-0.808l-2.001,1.156l0.338-2.463l-0.926-0.128l-0.44,3.182l-1.366,0.791
			l0.553-4.01l-0.926-0.127L49.7,18.442l-1.305,0.752l-2.57-1.483v-1.52l3.767-2.931l-0.574-0.739l-3.192,2.485v-1.581l2.533-1.972
			l-0.572-0.739l-1.961,1.526V9.929h-0.937v2.312l-1.964-1.526l-0.573,0.739l2.537,1.972v1.581l-3.194-2.485L41.12,13.26
			l3.769,2.931v1.52l-2.561,1.477L41,18.421l-0.652-4.728l-0.929,0.129l0.555,4.006l-1.366-0.788l-0.44-3.185l-0.928,0.13
			l0.34,2.462l-1.999-1.157l-0.467,0.813l1.998,1.154l-2.301,0.936l0.352,0.866l2.978-1.209l1.368,0.789l-3.715,1.513l-0.034,0.011
			l0.352,0.868l4.424-1.798l1.335,0.773v2.93l-1.347,0.778l-4.388-1.783L36.1,21.916l-0.351,0.87l3.745,1.522l-1.366,0.788
			l-2.94-1.195l-0.035-0.014l-0.354,0.867l2.305,0.935L35.1,26.847l0.468,0.808l2.001-1.155l-0.338,2.462l0.924,0.128l0.442-3.182
			l1.368-0.791l-0.555,4.01l0.926,0.127l0.654-4.729l1.348-0.778l2.527,1.46v1.568l-3.767,2.932l0.574,0.739l3.192-2.485v1.579
			l-2.533,1.975l0.573,0.737l1.96-1.525v2.312h0.937v-2.312l1.964,1.525l0.574-0.737l-2.538-1.975v-1.579l3.195,2.485l0.573-0.739
			l-3.769-2.932v-1.543l2.538-1.466l1.35,0.777l0.652,4.729l0.929-0.13l-0.555-4.008l1.366,0.791l0.44,3.185l0.928-0.129
			l-0.339-2.463l1.969,1.137l0.029,0.021l0.47-0.813l-2.001-1.154l2.27-0.922l0.034-0.014l-0.354-0.867L52.55,25.116z
			 M44.761,21.483l0.293-0.504h0.583l0.291,0.504l-0.291,0.504h-0.583L44.761,21.483z M46.281,21.496l1.625-0.938v1.876
			L46.281,21.496z M45.825,20.679v-1.89l1.636,0.946L45.825,20.679z M44.888,20.667l-1.625-0.938l1.625-0.939V20.667z M44.411,21.47
			l-1.604,0.926v-1.852L44.411,21.47z M44.866,22.287v1.84l-1.592-0.921L44.866,22.287z M45.802,22.299l1.603,0.925l-1.603,0.928
			V22.299z"/>
		<path id="snowflake_1_" fill="#FFFFFF" d="M45.825,9.929v2.312l1.961-1.526l0.572,0.739l-2.533,1.972v1.581l3.192-2.485
			l0.574,0.739l-3.767,2.931v1.52l2.57,1.483l1.305-0.752l0.654-4.729l0.926,0.127l-0.553,4.01l1.366-0.791l0.44-3.182l0.926,0.128
			l-0.338,2.463l2.001-1.156l0.468,0.808l-0.032,0.021l-1.97,1.137l2.304,0.935l-0.354,0.866l-0.034-0.013l-2.941-1.195
			l-1.366,0.788l3.746,1.522l-0.352,0.87l-0.035-0.015l-4.387-1.785l-1.326,0.767v2.956l1.314,0.76l4.423-1.798l0.352,0.867
			l-0.034,0.012l-3.715,1.513l1.368,0.789l2.978-1.21l0.354,0.867l-0.034,0.014l-2.27,0.922l2.001,1.154l-0.47,0.813l-0.029-0.021
			l-1.969-1.137l0.339,2.463l-0.928,0.129l-0.44-3.185l-1.366-0.791l0.555,4.008l-0.929,0.13l-0.652-4.729l-1.35-0.777l-2.538,1.466
			v1.543l3.769,2.932l-0.573,0.739l-3.195-2.485v1.579l2.538,1.975l-0.574,0.737l-1.964-1.525v2.312h-0.937v-2.312l-1.96,1.525
			l-0.573-0.737l2.533-1.975v-1.579l-3.192,2.485l-0.574-0.739l3.767-2.932v-1.568l-2.527-1.46l-1.348,0.778l-0.654,4.729
			l-0.926-0.127l0.555-4.01l-1.368,0.791l-0.442,3.182l-0.924-0.128l0.338-2.462l-2.001,1.155L35.1,26.847l2.003-1.158l-2.305-0.935
			l0.354-0.867l0.035,0.014l2.94,1.195l1.366-0.788l-3.745-1.522l0.351-0.87l0.035,0.016l4.388,1.783l1.347-0.778v-2.93
			l-1.335-0.773l-4.424,1.798l-0.352-0.868l0.034-0.011l3.715-1.513L38.14,17.85l-2.978,1.209l-0.352-0.866l2.301-0.936
			l-1.998-1.154l0.467-0.813l1.999,1.157l-0.34-2.462l0.928-0.13l0.44,3.185l1.366,0.788l-0.555-4.006l0.929-0.129L41,18.421
			l1.327,0.766l2.561-1.477v-1.52L41.12,13.26l0.574-0.739l3.194,2.485v-1.581l-2.537-1.972l0.573-0.739l1.964,1.526V9.929H45.825
			 M45.825,20.679l1.636-0.943l-1.636-0.946V20.679 M44.888,20.667V18.79l-1.625,0.939L44.888,20.667 M42.807,22.396l1.604-0.926
			l-1.604-0.926V22.396 M47.906,22.433v-1.876l-1.625,0.938L47.906,22.433 M45.054,21.987h0.583l0.291-0.504l-0.291-0.504h-0.583
			l-0.293,0.504L45.054,21.987 M44.866,24.126v-1.84l-1.592,0.919L44.866,24.126 M45.802,24.152l1.603-0.928l-1.603-0.925V24.152
			 M45.825,8.929h-0.937c-0.553,0-1,0.448-1,1v0.268l-0.351-0.272c-0.176-0.137-0.393-0.21-0.613-0.21
			c-0.042,0-0.084,0.002-0.125,0.008c-0.264,0.033-0.503,0.169-0.665,0.379l-0.573,0.739c-0.17,0.218-0.234,0.484-0.202,0.738
			c-0.179,0.063-0.337,0.177-0.455,0.329l-0.574,0.739c-0.013,0.016-0.024,0.032-0.035,0.048c-0.028,0.001-0.056,0.004-0.084,0.008
			l-0.929,0.129c-0.195,0.027-0.369,0.109-0.51,0.228c0-0.001-0.001-0.001-0.002-0.002c-0.175-0.132-0.387-0.202-0.603-0.202
			c-0.046,0-0.093,0.003-0.139,0.01l-0.928,0.13c-0.547,0.076-0.928,0.581-0.853,1.127l0.061,0.434l-0.228-0.131
			c-0.153-0.089-0.327-0.135-0.501-0.135c-0.087,0-0.174,0.011-0.26,0.034c-0.257,0.069-0.476,0.237-0.607,0.468l-0.467,0.813
			c-0.274,0.478-0.11,1.088,0.367,1.364l0.228,0.132l-0.407,0.166c-0.512,0.208-0.758,0.791-0.55,1.302l0.352,0.866
			c0.1,0.246,0.293,0.442,0.537,0.545c0.005,0.001,0.01,0.003,0.014,0.005c-0.037,0.185-0.025,0.377,0.046,0.552l0.352,0.868
			c0.008,0.019,0.016,0.038,0.024,0.057c-0.013,0.026-0.025,0.052-0.036,0.079l-0.351,0.87c-0.073,0.182-0.09,0.373-0.057,0.553
			c-0.235,0.099-0.434,0.288-0.538,0.543l-0.354,0.867c-0.101,0.246-0.1,0.522,0.004,0.767c0.104,0.245,0.3,0.438,0.546,0.539
			l0.409,0.166l-0.232,0.134c-0.229,0.133-0.397,0.352-0.466,0.608s-0.032,0.529,0.102,0.759l0.468,0.808
			c0.186,0.32,0.521,0.499,0.866,0.499c0.169,0,0.341-0.043,0.499-0.134l0.232-0.134l-0.061,0.439
			c-0.075,0.546,0.308,1.051,0.854,1.126l0.924,0.128c0.047,0.006,0.093,0.009,0.139,0.009c0.224,0,0.435-0.075,0.604-0.204
			c0.145,0.124,0.323,0.205,0.516,0.231l0.926,0.127c0.02,0.003,0.04,0.005,0.06,0.006c0.016,0.023,0.031,0.046,0.049,0.068
			l0.574,0.739c0.118,0.153,0.277,0.267,0.457,0.33c-0.032,0.254,0.033,0.521,0.202,0.739l0.573,0.737
			c0.163,0.209,0.402,0.346,0.666,0.378c0.041,0.005,0.083,0.008,0.124,0.008c0.221,0,0.438-0.073,0.614-0.211l0.346-0.269v0.266
			c0,0.552,0.447,1,1,1h0.937c0.552,0,1-0.448,1-1v-0.269l0.351,0.272c0.182,0.142,0.398,0.21,0.612,0.21
			c0.298,0,0.593-0.132,0.79-0.386l0.574-0.737c0.163-0.209,0.235-0.475,0.203-0.738c0-0.001,0-0.002,0-0.002
			c0.179-0.063,0.337-0.177,0.455-0.33l0.573-0.739c0.012-0.016,0.023-0.032,0.035-0.048c0.028-0.001,0.057-0.004,0.085-0.008
			l0.929-0.13c0.194-0.027,0.368-0.108,0.507-0.227c0.001,0.001,0.002,0.001,0.003,0.002c0.175,0.132,0.387,0.203,0.604,0.203
			c0.046,0,0.092-0.003,0.138-0.009l0.928-0.129c0.546-0.076,0.928-0.581,0.853-1.127l-0.061-0.439l0.193,0.111
			c0.16,0.094,0.347,0.146,0.533,0.146c0.068,0,0.138-0.007,0.204-0.022c0.273-0.061,0.524-0.223,0.664-0.466l0.47-0.813
			c0.133-0.229,0.169-0.503,0.101-0.759s-0.236-0.475-0.467-0.607l-0.228-0.132l0.373-0.152c0.246-0.1,0.46-0.3,0.563-0.545
			c0.104-0.245,0.122-0.527,0.021-0.773l-0.354-0.867c-0.106-0.26-0.31-0.451-0.551-0.548c0.037-0.185,0.025-0.377-0.045-0.552
			l-0.352-0.867c-0.008-0.02-0.017-0.038-0.025-0.057c0.014-0.025,0.025-0.051,0.036-0.078l0.352-0.87
			c0.074-0.183,0.09-0.375,0.057-0.555c0.235-0.1,0.434-0.289,0.537-0.543l0.354-0.866c0.102-0.246,0.1-0.522-0.003-0.767
			c-0.104-0.245-0.3-0.438-0.546-0.539l-0.407-0.165l0.197-0.113c0.019-0.011,0.036-0.022,0.055-0.034
			c0.439-0.293,0.607-0.898,0.343-1.354l-0.468-0.808c-0.186-0.32-0.521-0.499-0.866-0.499c-0.17,0-0.342,0.043-0.5,0.134
			L54.39,14.58l0.06-0.439c0.075-0.546-0.307-1.051-0.854-1.126l-0.926-0.128c-0.047-0.006-0.093-0.009-0.139-0.009
			c-0.223,0-0.433,0.075-0.603,0.203c-0.145-0.124-0.322-0.205-0.514-0.231l-0.926-0.127c-0.021-0.003-0.04-0.005-0.061-0.006
			c-0.015-0.023-0.031-0.046-0.049-0.068l-0.574-0.739c-0.118-0.153-0.277-0.266-0.456-0.33c0.031-0.253-0.033-0.519-0.202-0.737
			l-0.572-0.739c-0.162-0.21-0.401-0.347-0.665-0.38c-0.042-0.005-0.084-0.008-0.125-0.008c-0.222,0-0.438,0.074-0.614,0.211
			l-0.347,0.27V9.929C46.825,9.377,46.376,8.929,45.825,8.929L45.825,8.929z M41.924,17.8l-0.409-2.965l2.373,1.846v0.453
			l-1.561,0.9L41.924,17.8L41.924,17.8z M46.825,16.68l2.363-1.839l-0.412,2.979l-0.381,0.22l-1.57-0.907V16.68L46.825,16.68z
			 M37.671,21.476l2.786-1.132l0.412,0.239v1.776l-0.424,0.245L37.671,21.476L37.671,21.476z M49.842,20.594l0.402-0.233
			l2.773,1.129l-2.785,1.132l-0.391-0.226V20.594L49.842,20.594z M41.914,25.146l0.425-0.245l1.527,0.882v0.502l-2.364,1.839
			L41.914,25.146L41.914,25.146z M46.802,25.808l1.538-0.889l0.426,0.245l0.409,2.966l-2.373-1.846V25.808L46.802,25.808z"/>
	</g>
	<g>
		<polygon fill="#FFFFFF" points="31.227,5.105 20.256,14.15 20.256,31.15 27.839,32.983 28.59,16.316 39.777,7.271 		"/>
		<path fill="#155DFC" d="M27.839,33.983c-0.079,0-0.157-0.009-0.235-0.028l-7.583-1.833c-0.448-0.109-0.765-0.51-0.765-0.972v-17
			c0-0.299,0.133-0.582,0.363-0.771L30.59,4.333c0.247-0.202,0.574-0.275,0.882-0.198l8.55,2.166
			c0.367,0.093,0.65,0.385,0.731,0.755c0.081,0.37-0.054,0.754-0.348,0.992l-10.837,8.762l-0.73,16.217
			c-0.014,0.298-0.16,0.575-0.398,0.754C28.265,33.914,28.053,33.983,27.839,33.983z M21.256,30.363l5.639,1.363l0.696-15.455
			c0.013-0.286,0.147-0.553,0.37-0.733l9.633-7.789l-6.122-1.551l-10.216,8.423V30.363z"/>
	</g>
</g>
</svg>
