<?xml version="1.0" encoding="utf-8"?>
<!-- Generator: Adobe Illustrator 16.0.0, SVG Export Plug-In . SVG Version: 6.00 Build 0)  -->
<!DOCTYPE svg PUBLIC "-//W3C//DTD SVG 1.1//EN" "http://www.w3.org/Graphics/SVG/1.1/DTD/svg11.dtd">
<svg version="1.1" id="레이어_1" xmlns="http://www.w3.org/2000/svg" xmlns:xlink="http://www.w3.org/1999/xlink" x="0px"
	 y="0px" width="652.979px" height="137.297px" viewBox="0 0 652.979 137.297" enable-background="new 0 0 652.979 137.297"
	 xml:space="preserve">
<g>
	<g>
		<path fill="#FFFFFF" d="M236.613,51.92v20.928h-65.756V13.294H197.6V51.92H236.613z M274.465,79.309v44.568h-98.182V79.309
			H274.465z M203.025,97.523v8.139h44.698v-8.139H203.025z M274.465,51.92v22.867h-26.741V12.002h26.741v17.699h11.239v22.22
			H274.465z"/>
		<path fill="#FFFFFF" d="M293.195,58.251h111.747v22.22H293.195V58.251z M371.87,123.877v-16.019h-72.344V85.768h99.086v38.109
			H371.87z M370.578,35.514h-69.761v-22.22h96.503v40.564h-26.742V35.514z"/>
		<path fill="#FFFFFF" d="M495.889,94.035v-3.229h-72.344V77.5h36.172v-4.135h-42.503V56.184h111.747v17.182h-42.503V77.5h36.173
			v29.842h-72.345v3.229h73.636v13.306H423.545V94.035H495.889z M521.339,52.05h-96.503V13.294h96.503V52.05z M450.286,30.347v4.65
			h45.603v-4.65H450.286z"/>
		<path fill="#FFFFFF" d="M560.48,125.299v-17.312h-19.249v-22.22h111.747v22.22h-19.249v17.312h-26.741v-17.312h-19.766v17.312
			H560.48z M547.563,32.93V14.586h99.086v41.339h-72.345v4.78h73.636V79.05H547.563V37.581h72.215V32.93H547.563z"/>
	</g>
	<g>
		<path fill="#FFFFFF" d="M140.648,118.846c-3.804-17.486-10.513-33.88-19.183-49.513c-4.796-8.651-8.741-17.611-8.152-27.865
			c0.012-0.207-0.025-0.417-0.025-0.624c0.015-10.279-3.644-19.271-10.073-27.075C95.252,4.099,84.416,0.416,72.265,0.025
			c-9.361-0.298-18.232,2.054-26.92,5.305c-1.894,0.709-3.82,1.472-5.797,1.756c-5.427,0.78-10.874,0.743-16.35,0.251
			c-3.662-0.329-7.39-0.421-11.046-0.122C7.341,7.612,3.41,9.811,1.102,14.303C0.679,15.121,0.366,15.992,0,16.842
			c0,0.938,0,1.874,0,2.812c0.288-0.046,0.646,0.009,0.85-0.146c2.18-1.621,4.6-1.896,7.117-1.17
			c2.294,0.661,4.518,1.566,6.811,2.23c3.133,0.909,6.262,2.11,9.469,2.447c6.887,0.721,13.15,2.966,18.945,6.627
			c4.402,2.782,7.898,6.436,10.009,11.254c1.17,2.673,0.883,5.113-1.347,7.267c-3.369,3.248-6.631,6.605-9.954,9.906
			c-0.553,0.549-1.134,1.088-1.778,1.519c-6.397,4.265-9.539,10.526-10.392,17.894c-0.825,7.121-2.735,13.68-6.284,20.018
			c-5.044,9.006-9.364,18.422-13.926,27.694c-1.861,3.784-2.303,7.94-2.919,12.095c6.469,0,12.867,0,19.117,0
			c1.405,0,2.805,0,4.19,0c-0.212-5.659-0.49-11.219-0.614-16.777c-0.334-14.597,0.498-29.131,2.56-43.582
			c0.821-5.746,2.877-10.829,7.754-14.423c3.911-2.885,7.415-6.206,10.455-10.018c1.488-1.865,3.417-3.073,5.911-2.966
			c3.06,0.132,6.15,0.12,9.163,0.591c1.888,0.292,3.798,1.127,5.441,2.134c1.804,1.105,1.53,2.746-0.371,3.709
			c-0.725,0.368-1.492,0.658-2.236,0.979c0.604,0.158,1.123-0.055,1.65-0.078c0.481-0.018,0.973,0.173,1.463,0.254
			c0.322,0.052,0.655,0.13,0.972,0.091c1.029-0.13,2.05-0.31,3.078-0.469c2.564-0.389,5.22-0.48,7.677-1.234
			c4.436-1.359,8.967-1.76,13.533-2.051c0.557-0.035,1.126,0.164,2.045,0.312c-0.768,0.478-1.172,0.731-1.806,1.127
			c2.953,0.633,3.965,2.865,4.836,5.095c0.699,1.782,1.274,3.648,1.588,5.53c0.523,3.133,1.543,6.021,3.309,8.662
			c2.031,3.037,2.967,6.4,2.712,10.057c-0.212,3.006-0.513,6.008-0.717,9.018c-0.085,1.211-0.014,2.434-0.014,3.652
			c-0.152,0.035-0.308,0.077-0.461,0.115c-0.442-0.996-0.922-1.979-1.313-2.996c-1.992-5.188-3.889-10.408-5.963-15.559
			c-2.834-7.033-8.021-11.728-15.111-14.164c-4.314-1.48-8.799-2.447-13.192-3.692c-0.718-0.204-1.379-0.618-2.042-0.978
			c-0.768-0.412-1.465-1.039-2.276-1.264c-0.936-0.255-1.969-0.112-2.943-0.259c-1.021-0.154-2.104-0.071-2.345,0.954
			c-0.176,0.745,0.124,2.032,0.681,2.441c1.516,1.119,3.194,2.136,4.965,2.768c4.158,1.479,8.456,2.564,12.604,4.078
			c5.304,1.933,9.411,5.454,12.355,10.29c0.513,0.84,0.989,1.713,1.401,2.606c3.688,7.961,7.353,15.937,11.04,23.897
			c0.534,1.15,0.947,2.241,0.47,3.564c-2.528,7.005-3.341,14.361-4.274,21.684c-0.291,2.288-0.389,4.604-0.577,6.9
			c6.263,0,12.27,0,17.902,0c0.907-3.876,1.67-7.588,2.667-11.234c0.911-3.331,2.08-6.598,3.109-9.812
			c2.693,6.609,4.642,13.731,5.876,21.058h4.079c2.805,0,5.645,0,8.662,0C142.619,131.039,141.956,124.873,140.648,118.846z
			 M59.302,19.793c1.456-0.666,2.959-1.311,4.51-1.647c3.144-0.675,5.956,0.885,7.273,4.232c-0.64-0.392-1.364-0.695-1.907-1.196
			c-2.469-2.282-5.104-2.437-7.548-0.44c-0.802,0.655-0.914,1.242-0.364,2.117c1.612,2.562,4.627,3.05,7.686,1.293
			c0.924-0.528,1.98-0.815,2.977-1.215c0.099,0.25,0.199,0.504,0.302,0.755c-2.273,0.866-4.526,1.803-6.838,2.548
			c-0.603,0.194-1.537,0.003-2.071-0.369c-1.567-1.082-3.12-2.232-4.47-3.565C57.703,21.177,57.887,20.446,59.302,19.793z
			 M75.084,4.687c8.687,2.459,15.466,7.757,20.872,14.808c3.15,4.11,3.878,9.013,3.324,14.079c-0.301,2.705-1.753,4.882-3.836,6.567
			c-0.521,0.428-1.494,0.719-2.074,0.523c-0.441-0.15-0.804-1.158-0.831-1.801c-0.095-2.227,0.123-4.471-0.06-6.689
			c-0.487-5.889-3.279-10.372-8.411-13.43c-3.524-2.097-6.966-4.333-10.393-6.587c-2.961-1.948-6.244-2.586-9.675-2.357
			c-4.145,0.28-8.268,0.864-12.41,1.185c-3.116,0.236-6.054-0.526-9.037-2.098C53.214,4.62,63.756,1.48,75.084,4.687z M3.248,14.945
			c1.907-2.981,4.678-4.792,8.064-5.222c3.173-0.403,6.449-0.592,9.619-0.269c6.142,0.628,12.246,0.715,18.382,0.132
			c0.474-0.045,0.949-0.05,1.427-0.076c0.008,0.167,0.018,0.332,0.025,0.497c-2.553,0.196-5.107,0.576-7.658,0.551
			c-4.364-0.039-8.736-0.153-13.077-0.563C13.738,9.397,7.955,10.152,3.248,14.945z M10.033,14.921
			c4.666-2.019,28.6,1.381,33.75,5.004c-5.814-1.187-11.365-2.567-16.996-3.398C21.182,15.701,15.502,15.423,10.033,14.921z
			 M19.424,17.96c0.017-0.192,0.032-0.384,0.045-0.575c1.086,0.068,2.185,0.037,3.25,0.219c5.834,1.007,11.648,2.123,17.492,3.088
			c3.023,0.501,6.103,0.651,9.113,1.193c1.96,0.351,3.843,1.131,5.687,1.898C43.148,21.844,31.285,19.903,19.424,17.96z"/>
	</g>
</g>
</svg>
