<?xml version="1.0" encoding="utf-8"?>
<!-- Generator: Adobe Illustrator 16.0.0, SVG Export Plug-In . SVG Version: 6.00 Build 0)  -->
<!DOCTYPE svg PUBLIC "-//W3C//DTD SVG 1.1//EN" "http://www.w3.org/Graphics/SVG/1.1/DTD/svg11.dtd">
<svg version="1.1" id="레이어_1" xmlns="http://www.w3.org/2000/svg" xmlns:xlink="http://www.w3.org/1999/xlink" x="0px"
	 y="0px" width="459.732px" height="439.545px" viewBox="0 0 459.732 439.545" enable-background="new 0 0 459.732 439.545"
	 xml:space="preserve">
<g>
	<path fill="#FFFFFF" d="M390.182,403.542c-3.194,11.673-5.63,23.554-8.541,35.959c-18.031,0-37.26,0-57.313,0
		c0.598-7.35,0.914-14.759,1.851-22.089c2.994-23.445,5.586-46.995,13.686-69.424c1.531-4.241,0.201-7.729-1.503-11.409
		c-11.804-25.494-23.54-51.02-35.35-76.512c-1.325-2.861-2.844-5.65-4.483-8.345c-9.427-15.479-22.577-26.744-39.558-32.938
		c-13.27-4.84-27.036-8.313-40.347-13.051c-5.662-2.015-11.041-5.28-15.897-8.861c-1.781-1.313-2.746-5.431-2.18-7.817
		c0.777-3.278,4.237-3.543,7.512-3.048c3.117,0.471,6.434,0.009,9.421,0.834c2.603,0.719,4.834,2.723,7.292,4.043
		c2.128,1.144,4.245,2.472,6.536,3.12c14.072,3.981,28.437,7.084,42.243,11.822c22.7,7.791,39.308,22.828,48.372,45.342
		c6.639,16.494,12.707,33.218,19.093,49.814c1.253,3.255,2.795,6.399,4.203,9.595c0.492-0.125,0.984-0.25,1.477-0.375
		c0-3.897-0.221-7.811,0.044-11.69c0.656-9.633,1.626-19.243,2.299-28.875c0.816-11.701-2.18-22.465-8.68-32.189
		c-5.654-8.461-8.916-17.698-10.591-27.731c-1.005-6.022-2.85-12.001-5.082-17.7c-2.796-7.139-6.029-14.28-15.486-16.311
		c2.03-1.268,3.322-2.074,5.783-3.611c-2.947-0.472-4.773-1.108-6.551-0.995c-14.621,0.929-29.121,2.214-43.32,6.567
		c-7.859,2.409-16.366,2.701-24.581,3.954c-3.285,0.501-6.559,1.078-9.853,1.494c-1.007,0.127-2.076-0.117-3.102-0.283
		c-1.571-0.254-3.141-0.875-4.689-0.811c-1.684,0.07-3.342,0.746-5.28,0.247c2.392-1.038,4.844-1.958,7.166-3.136
		c6.091-3.089,6.964-8.338,1.188-11.876c-5.267-3.227-11.379-5.896-17.426-6.837c-9.644-1.502-19.537-1.472-29.334-1.891
		c-7.992-0.341-14.169,3.522-18.931,9.498c-9.729,12.208-20.949,22.833-33.47,32.068c-15.608,11.512-22.201,27.779-24.824,46.171
		c-6.601,46.279-9.254,92.805-8.196,139.529c0.403,17.803,1.292,35.593,1.971,53.716c-4.443,0-8.921,0-13.416,0l0.001,0.036h336.616
		c-3.951-23.453-10.186-46.253-18.811-67.412C396.843,382.421,393.103,392.869,390.182,403.542z"/>
	<path d="M450.265,380.479c-12.17-55.99-33.646-108.472-61.406-158.523c-15.36-27.694-27.988-56.374-26.102-89.205
		c0.038-0.662-0.075-1.331-0.075-1.997c0.043-32.907-11.673-61.696-32.25-86.676C304.931,13.122,270.25,1.323,231.343,0.082
		c-29.968-0.956-58.372,6.577-86.18,16.983c-6.053,2.265-12.234,4.707-18.564,5.616c-17.366,2.494-34.811,2.374-52.34,0.805
		c-11.717-1.048-23.654-1.346-35.361-0.382c-15.403,1.27-27.985,8.298-35.375,22.68C2.175,48.405,1.165,51.2,0,53.915
		c0,3,0,5.999,0,8.999c0.918-0.138,2.063,0.029,2.719-0.46c6.972-5.193,14.719-6.066,22.79-3.748
		c7.343,2.11,14.459,5.005,21.798,7.134c10.034,2.912,20.042,6.758,30.311,7.836c22.054,2.316,42.11,9.492,60.662,21.217
		c14.086,8.902,25.284,20.597,32.035,36.033c3.743,8.558,2.827,16.37-4.315,23.256c-10.787,10.398-21.226,21.157-31.86,31.715
		c-1.769,1.756-3.631,3.488-5.695,4.863c-20.482,13.657-30.54,33.702-33.269,57.285c-2.639,22.799-8.758,43.802-20.117,64.088
		c-16.145,28.838-29.982,58.974-44.584,88.664c-5.955,12.107-7.372,25.418-9.345,38.711c20.711,0,41.194,0,61.202,0
		c4.495,0,8.973,0,13.416,0c-0.679-18.123-1.567-35.913-1.971-53.716c-1.058-46.725,1.595-93.25,8.196-139.529
		c2.624-18.392,9.216-34.66,24.824-46.171c12.521-9.235,23.74-19.86,33.47-32.068c4.762-5.976,10.939-9.839,18.931-9.498
		c9.797,0.419,19.69,0.389,29.334,1.891c6.047,0.942,12.16,3.611,17.426,6.837c5.776,3.538,4.903,8.788-1.188,11.876
		c-2.322,1.178-4.773,2.098-7.166,3.136c1.938,0.499,3.597-0.177,5.28-0.247c1.548-0.064,3.118,0.557,4.689,0.811
		c1.026,0.166,2.095,0.41,3.102,0.283c3.294-0.416,6.568-0.993,9.853-1.494c8.214-1.252,16.722-1.544,24.581-3.954
		c14.199-4.353,28.699-5.638,43.32-6.567c1.777-0.113,3.604,0.523,6.551,0.995c-2.461,1.537-3.753,2.344-5.783,3.611
		c9.457,2.031,12.69,9.172,15.486,16.311c2.232,5.699,4.077,11.677,5.082,17.7c1.675,10.034,4.937,19.271,10.591,27.731
		c6.5,9.725,9.496,20.488,8.68,32.189c-0.673,9.632-1.643,19.242-2.299,28.875c-0.265,3.88-0.044,7.793-0.044,11.69
		c-0.492,0.125-0.984,0.25-1.477,0.375c-1.408-3.195-2.95-6.34-4.203-9.595c-6.386-16.597-12.454-33.32-19.093-49.814
		c-9.063-22.515-25.672-37.552-48.372-45.342c-13.806-4.738-28.17-7.84-42.243-11.822c-2.291-0.648-4.408-1.977-6.536-3.12
		c-2.458-1.32-4.69-3.324-7.292-4.043c-2.987-0.825-6.304-0.363-9.421-0.834c-3.275-0.495-6.735-0.229-7.512,3.048
		c-0.566,2.387,0.399,6.504,2.18,7.817c4.856,3.581,10.235,6.847,15.897,8.861c13.312,4.738,27.077,8.21,40.347,13.051
		c16.981,6.194,30.131,17.459,39.558,32.938c1.64,2.694,3.158,5.483,4.483,8.345c11.81,25.492,23.546,51.018,35.35,76.512
		c1.704,3.681,3.034,7.168,1.503,11.409c-8.1,22.43-10.691,45.979-13.686,69.424c-0.937,7.33-1.253,14.739-1.851,22.089
		c20.054,0,39.282,0,57.313,0c2.911-12.405,5.347-24.286,8.541-35.959c2.921-10.673,6.661-21.121,9.957-31.409
		c8.625,21.158,14.859,43.958,18.811,67.412H432c8.988,0,18.076,0,27.732,0C456.584,419.51,454.457,399.769,450.265,380.479z
		 M189.853,63.369c4.649-2.134,9.47-4.199,14.437-5.269c10.062-2.168,19.064,2.827,23.29,13.548c-2.052-1.26-4.375-2.226-6.109-3.83
		c-7.9-7.306-16.339-7.797-24.164-1.407c-2.562,2.093-2.929,3.972-1.168,6.772c5.159,8.201,14.805,9.772,24.605,4.142
		c2.949-1.694,6.341-2.617,9.53-3.894c0.318,0.809,0.637,1.618,0.956,2.426c-7.279,2.769-14.484,5.764-21.886,8.152
		c-1.927,0.622-4.918,0.009-6.635-1.175c-5.019-3.464-9.988-7.151-14.313-11.423C184.735,67.796,185.316,65.452,189.853,63.369z
		 M240.367,15.002c27.82,7.872,49.515,24.833,66.818,47.406c10.087,13.16,12.42,28.854,10.641,45.068
		c-0.951,8.666-5.603,15.626-12.268,21.033c-1.678,1.362-4.787,2.294-6.646,1.667c-1.414-0.478-2.571-3.706-2.661-5.761
		c-0.311-7.128,0.395-14.319-0.193-21.411c-1.559-18.858-10.497-33.214-26.931-42.999c-11.278-6.715-22.302-13.87-33.272-21.083
		c-9.486-6.238-19.99-8.282-30.969-7.545c-13.269,0.892-26.469,2.763-39.732,3.782c-9.97,0.766-19.373-1.679-28.933-6.714
		C170.357,14.792,204.103,4.742,240.367,15.002z M10.399,47.849c6.098-9.547,14.972-15.346,25.816-16.723
		c10.155-1.29,20.647-1.89,30.792-0.853c19.659,2.008,39.212,2.286,58.843,0.415c1.515-0.145,3.042-0.163,4.563-0.239
		c0.028,0.529,0.057,1.058,0.085,1.588c-8.172,0.633-16.349,1.846-24.514,1.769c-13.963-0.131-27.973-0.49-41.864-1.808
		C43.976,30.085,25.465,32.5,10.399,47.849z M32.12,47.766c14.934-6.469,91.556,4.425,108.041,16.02
		c-18.607-3.796-36.381-8.215-54.414-10.878C67.813,50.258,49.621,49.372,32.12,47.766z M62.184,57.495
		c0.048-0.612,0.096-1.224,0.144-1.836c3.468,0.217,6.991,0.115,10.395,0.703c18.68,3.227,37.303,6.793,56.004,9.89
		c9.672,1.602,19.536,2.08,29.177,3.819c6.27,1.131,12.294,3.621,18.198,6.084C138.129,69.935,100.157,63.715,62.184,57.495z"/>
	<path fill="#FFFFFF" d="M240.367,15.002c-36.264-10.26-70.009-0.21-104.146,13.443c9.56,5.036,18.962,7.48,28.933,6.714
		c13.263-1.02,26.463-2.891,39.732-3.782c10.979-0.737,21.483,1.307,30.969,7.545c10.97,7.214,21.994,14.369,33.272,21.083
		c16.434,9.785,25.373,24.141,26.931,42.999c0.588,7.092-0.117,14.283,0.193,21.411c0.09,2.056,1.247,5.284,2.661,5.761
		c1.858,0.627,4.968-0.305,6.646-1.667c6.665-5.407,11.316-12.367,12.268-21.033c1.779-16.214-0.554-31.908-10.641-45.068
		C289.881,39.835,268.187,22.874,240.367,15.002z"/>
	<path fill="#FFFFFF" d="M220.743,77.325c-9.8,5.631-19.446,4.06-24.605-4.142c-1.76-2.8-1.394-4.679,1.168-6.772
		c7.825-6.39,16.264-5.899,24.164,1.407c1.733,1.604,4.057,2.57,6.109,3.83c-4.226-10.721-13.228-15.716-23.29-13.548
		c-4.967,1.07-9.788,3.135-14.437,5.269c-4.537,2.083-5.118,4.427-1.458,8.043c4.325,4.272,9.294,7.959,14.313,11.423
		c1.717,1.185,4.708,1.797,6.635,1.175c7.401-2.389,14.607-5.384,21.886-8.152c-0.318-0.809-0.637-1.618-0.956-2.426
		C227.084,74.708,223.692,75.631,220.743,77.325z"/>
	<path fill="#FFFFFF" d="M140.16,63.786C123.676,52.191,47.053,41.297,32.12,47.766c17.501,1.606,35.694,2.492,53.626,5.141
		C103.779,55.571,121.553,59.989,140.16,63.786z"/>
	<path fill="#FFFFFF" d="M128.728,66.251c-18.701-3.097-37.324-6.663-56.004-9.89c-3.404-0.588-6.927-0.486-10.395-0.703
		c-0.048,0.612-0.096,1.224-0.144,1.836c37.973,6.22,75.945,12.439,113.918,18.66c-5.904-2.463-11.928-4.953-18.198-6.084
		C148.263,68.331,138.399,67.854,128.728,66.251z"/>
	<path fill="#FFFFFF" d="M64.121,31.998c13.891,1.318,27.901,1.677,41.864,1.808c8.165,0.077,16.342-1.136,24.514-1.769
		c-0.028-0.53-0.057-1.059-0.085-1.588c-1.521,0.077-3.048,0.095-4.563,0.239c-19.63,1.871-39.184,1.593-58.843-0.415
		c-10.146-1.037-20.638-0.437-30.792,0.853c-10.844,1.377-19.718,7.176-25.816,16.723C25.465,32.5,43.976,30.085,64.121,31.998z"/>
</g>
</svg>
